M48
;Layer_Color=9474304
;FILE_FORMAT=2:5
INCH,LZ
;TYPE=PLATED
T01F00S00C0.02362
T02F00S00C0.02953
T03F00S00C0.03543
T04F00S00C0.03937
T05F00S00C0.04724
%
T01
X0626Y0213
X0646
X0667657Y0211579
X06775Y0221421
X0687343Y0211579
X0687185Y0251
X0677343Y0260843
X06675Y0251
X0646Y02465
X0626
X0732Y0268
X0752
X0615Y02305
X0595
X05365Y025
X05165
T02
X03215Y0203
X03445
X03845
X0353Y0264
X0313
X029
X025
X0227
X0187
X0164
X01955Y0203
X02185
X02585
X02815
X01555
X0124Y0264
T03
X0729563Y0206
X0737437
X0581Y023
Y024
Y025
Y026
X0551
Y025
Y024
Y023
X04975Y02315
Y02215
Y02115
Y02015
Y02415
Y02515
Y02615
X04675
Y02515
Y02415
Y02315
Y02215
Y02115
Y02015
X0432Y01975
Y02075
Y02175
Y02275
Y02375
Y02475
Y02575
Y02675
X0402
Y02575
Y02475
Y02375
Y02275
Y02175
Y02075
Y01975
T04
X0716315Y0243
X0726157
X0736
X03445Y0234
X03345
X0313Y0234
X0303
X02815
X02715
X025
X024
X02185
X02085
X0187
X0177
X01555
X01455
X0124
X0114
T05
X1377Y0233
X1201016
X1164
X0988016
X095
X0774016
M30
