%TF.GenerationSoftware,Altium Limited,DefaultClient, ()*%
G04 Layer_Physical_Order=1*
G04 Layer_Color=255*
G04 Board_Origin=0|0*
%FSLAX26Y26*%
%MOIN*%
%TF.SameCoordinates,E9855A05-1A0A-438E-9AA8-48BE9703F153*%
%TF.FilePolarity,Positive*%
%TF.FileFunction,Copper,L1,Top,Signal*%
%TF.Part,Single*%
G01*
G75*
%TA.AperFunction,Conductor*%
%ADD10C,0.012000*%
%ADD11C,0.020000*%
%TA.AperFunction,ComponentPad*%
%ADD12C,0.086614*%
%ADD13C,0.078740*%
%ADD14R,0.059055X0.059055*%
%ADD15C,0.059055*%
%ADD16C,0.062992*%
%ADD17C,0.066929*%
%ADD18C,0.049213*%
G36*
X14000000Y1800000D02*
X1000000D01*
Y2880000D01*
X14000000D01*
Y1800000D01*
D02*
G37*
%LPC*%
G36*
X7527018Y2733307D02*
X7525000D01*
Y2685000D01*
X7573307D01*
Y2687018D01*
X7569674Y2700576D01*
X7562656Y2712731D01*
X7552731Y2722656D01*
X7540576Y2729674D01*
X7527018Y2733307D01*
D02*
G37*
G36*
X7515000D02*
X7512982D01*
X7499424Y2729674D01*
X7487269Y2722656D01*
X7477344Y2712731D01*
X7470326Y2700576D01*
X7466693Y2687018D01*
Y2685000D01*
X7515000D01*
Y2733307D01*
D02*
G37*
G36*
X4325204Y2714528D02*
X4314796D01*
X4304743Y2711834D01*
X4295730Y2706630D01*
X4288370Y2699271D01*
X4283166Y2690257D01*
X4280472Y2680204D01*
Y2669796D01*
X4281632Y2665470D01*
X4135581Y2519419D01*
X4131160Y2512804D01*
X4129608Y2505000D01*
Y2278447D01*
X4051031Y2199869D01*
X4044271Y2206630D01*
X4035257Y2211834D01*
X4025204Y2214528D01*
X4014796D01*
X4004743Y2211834D01*
X3995729Y2206630D01*
X3988370Y2199271D01*
X3983166Y2190257D01*
X3980472Y2180204D01*
Y2169796D01*
X3983166Y2159743D01*
X3988370Y2150729D01*
X3992786Y2146314D01*
X3990715Y2141314D01*
X3940000D01*
X3933757Y2140072D01*
X3928465Y2136535D01*
X3862192Y2070263D01*
X3861777Y2070503D01*
X3850722Y2073465D01*
X3839278D01*
X3828223Y2070503D01*
X3818312Y2064780D01*
X3810220Y2056688D01*
X3804497Y2046777D01*
X3801535Y2035722D01*
Y2024278D01*
X3804497Y2013223D01*
X3810220Y2003312D01*
X3818312Y1995220D01*
X3828223Y1989497D01*
X3839278Y1986535D01*
X3850722D01*
X3861777Y1989497D01*
X3871688Y1995220D01*
X3879780Y2003312D01*
X3885503Y2013223D01*
X3888465Y2024278D01*
Y2035722D01*
X3885503Y2046777D01*
X3885263Y2047192D01*
X3946757Y2108686D01*
X3990715D01*
X3992786Y2103686D01*
X3988370Y2099271D01*
X3983166Y2090257D01*
X3980472Y2080204D01*
Y2069796D01*
X3983166Y2059743D01*
X3988370Y2050729D01*
X3995729Y2043370D01*
X4004743Y2038166D01*
X4014796Y2035473D01*
X4025204D01*
X4035257Y2038166D01*
X4044271Y2043370D01*
X4051630Y2050729D01*
X4056834Y2059743D01*
X4059528Y2069796D01*
Y2080204D01*
X4056834Y2090257D01*
X4051630Y2099271D01*
X4047214Y2103686D01*
X4049285Y2108686D01*
X4160000D01*
X4166243Y2109928D01*
X4171535Y2113465D01*
X4245535Y2187465D01*
X4249072Y2192757D01*
X4250314Y2199000D01*
Y2482243D01*
X4305921Y2537851D01*
X4314796Y2535472D01*
X4325204D01*
X4335257Y2538166D01*
X4344270Y2543370D01*
X4351630Y2550729D01*
X4356834Y2559743D01*
X4359528Y2569796D01*
Y2580204D01*
X4356834Y2590257D01*
X4351630Y2599271D01*
X4344270Y2606630D01*
X4335257Y2611834D01*
X4325204Y2614528D01*
X4314796D01*
X4304743Y2611834D01*
X4295730Y2606630D01*
X4288370Y2599271D01*
X4283166Y2590257D01*
X4280472Y2580204D01*
Y2569796D01*
X4282850Y2560921D01*
X4222465Y2500535D01*
X4218928Y2495243D01*
X4217686Y2489000D01*
Y2205757D01*
X4153243Y2141314D01*
X4049285D01*
X4047214Y2146314D01*
X4051630Y2150729D01*
X4053869Y2154608D01*
X4055000D01*
X4062804Y2156160D01*
X4069419Y2160581D01*
X4164419Y2255581D01*
X4168840Y2262196D01*
X4170392Y2270000D01*
Y2496553D01*
X4310470Y2636632D01*
X4314796Y2635472D01*
X4325204D01*
X4335257Y2638166D01*
X4344270Y2643370D01*
X4351630Y2650729D01*
X4356834Y2659743D01*
X4359528Y2669796D01*
Y2680204D01*
X4356834Y2690257D01*
X4351630Y2699271D01*
X4344270Y2706630D01*
X4335257Y2711834D01*
X4325204Y2714528D01*
D02*
G37*
G36*
X4059528D02*
X3980472D01*
Y2635472D01*
X4059528D01*
Y2714528D01*
D02*
G37*
G36*
X7573307Y2675000D02*
X7525000D01*
Y2626693D01*
X7527018D01*
X7540576Y2630326D01*
X7552731Y2637344D01*
X7562656Y2647269D01*
X7569674Y2659424D01*
X7573307Y2672982D01*
Y2675000D01*
D02*
G37*
G36*
X7515000D02*
X7466693D01*
Y2672982D01*
X7470326Y2659424D01*
X7477344Y2647269D01*
X7487269Y2637344D01*
X7499424Y2630326D01*
X7512982Y2626693D01*
X7515000D01*
Y2675000D01*
D02*
G37*
G36*
X5549528Y2639528D02*
X5515000D01*
Y2605000D01*
X5549528D01*
Y2639528D01*
D02*
G37*
G36*
X5505000D02*
X5470472D01*
Y2605000D01*
X5505000D01*
Y2639528D01*
D02*
G37*
G36*
X3535722Y2683465D02*
X3524278D01*
X3513223Y2680503D01*
X3503312Y2674780D01*
X3495220Y2666688D01*
X3489497Y2656777D01*
X3486535Y2645722D01*
Y2634278D01*
X3489497Y2623223D01*
X3495220Y2613312D01*
X3503312Y2605220D01*
X3513223Y2599497D01*
X3524278Y2596535D01*
X3535722D01*
X3546777Y2599497D01*
X3556688Y2605220D01*
X3564780Y2613312D01*
X3570503Y2623223D01*
X3573465Y2634278D01*
Y2645722D01*
X3570503Y2656777D01*
X3564780Y2666688D01*
X3556688Y2674780D01*
X3546777Y2680503D01*
X3535722Y2683465D01*
D02*
G37*
G36*
X2905722D02*
X2894278D01*
X2883223Y2680503D01*
X2873312Y2674780D01*
X2865220Y2666688D01*
X2859497Y2656777D01*
X2856535Y2645722D01*
Y2634278D01*
X2859497Y2623223D01*
X2865220Y2613312D01*
X2873312Y2605220D01*
X2883223Y2599497D01*
X2894278Y2596535D01*
X2905722D01*
X2916777Y2599497D01*
X2926688Y2605220D01*
X2934780Y2613312D01*
X2940503Y2623223D01*
X2943465Y2634278D01*
Y2645722D01*
X2940503Y2656777D01*
X2934780Y2666688D01*
X2926688Y2674780D01*
X2916777Y2680503D01*
X2905722Y2683465D01*
D02*
G37*
G36*
X1645722D02*
X1634278D01*
X1623223Y2680503D01*
X1613312Y2674780D01*
X1605220Y2666688D01*
X1599497Y2656777D01*
X1596535Y2645722D01*
Y2634278D01*
X1599497Y2623223D01*
X1605220Y2613312D01*
X1613312Y2605220D01*
X1623223Y2599497D01*
X1634278Y2596535D01*
X1645722D01*
X1656777Y2599497D01*
X1666688Y2605220D01*
X1674780Y2613312D01*
X1680503Y2623223D01*
X1683465Y2634278D01*
Y2645722D01*
X1680503Y2656777D01*
X1674780Y2666688D01*
X1666688Y2674780D01*
X1656777Y2680503D01*
X1645722Y2683465D01*
D02*
G37*
G36*
X4714528Y2654528D02*
X4635472D01*
Y2575472D01*
X4714528D01*
Y2654528D01*
D02*
G37*
G36*
X6777982Y2643032D02*
X6768870D01*
X6760069Y2640674D01*
X6752177Y2636118D01*
X6745734Y2629675D01*
X6741178Y2621784D01*
X6738820Y2612982D01*
Y2603870D01*
X6741178Y2595068D01*
X6745734Y2587177D01*
X6752177Y2580734D01*
X6760069Y2576178D01*
X6768870Y2573820D01*
X6777982D01*
X6786783Y2576178D01*
X6794675Y2580734D01*
X6801118Y2587177D01*
X6805674Y2595068D01*
X6808032Y2603870D01*
Y2612982D01*
X6805674Y2621784D01*
X6801118Y2629675D01*
X6794675Y2636118D01*
X6786783Y2640674D01*
X6777982Y2643032D01*
D02*
G37*
G36*
X5549528Y2595000D02*
X5515000D01*
Y2560472D01*
X5549528D01*
Y2595000D01*
D02*
G37*
G36*
X5505000D02*
X5470472D01*
Y2560472D01*
X5505000D01*
Y2595000D01*
D02*
G37*
G36*
X4025204Y2614528D02*
X4014796D01*
X4004743Y2611834D01*
X3995729Y2606630D01*
X3988370Y2599271D01*
X3983166Y2590257D01*
X3980472Y2580204D01*
Y2569796D01*
X3983166Y2559743D01*
X3988370Y2550729D01*
X3995729Y2543370D01*
X4004743Y2538166D01*
X4014796Y2535472D01*
X4025204D01*
X4035257Y2538166D01*
X4044271Y2543370D01*
X4051630Y2550729D01*
X4056834Y2559743D01*
X4059528Y2569796D01*
Y2580204D01*
X4056834Y2590257D01*
X4051630Y2599271D01*
X4044271Y2606630D01*
X4035257Y2611834D01*
X4025204Y2614528D01*
D02*
G37*
G36*
X4680204Y2554528D02*
X4680000D01*
Y2520000D01*
X4714528D01*
Y2520204D01*
X4711834Y2530257D01*
X4706630Y2539271D01*
X4699270Y2546630D01*
X4690257Y2551834D01*
X4680204Y2554528D01*
D02*
G37*
G36*
X4670000D02*
X4669796D01*
X4659743Y2551834D01*
X4650730Y2546630D01*
X4643370Y2539271D01*
X4638166Y2530257D01*
X4635472Y2520204D01*
Y2520000D01*
X4670000D01*
Y2554528D01*
D02*
G37*
G36*
X5172018Y2553307D02*
X5170000D01*
Y2505000D01*
X5218307D01*
Y2507018D01*
X5214674Y2520576D01*
X5207656Y2532731D01*
X5197731Y2542656D01*
X5185576Y2549674D01*
X5172018Y2553307D01*
D02*
G37*
G36*
X5160000D02*
X5157982D01*
X5144424Y2549674D01*
X5132269Y2542656D01*
X5122344Y2532731D01*
X5115326Y2520576D01*
X5111693Y2507018D01*
Y2505000D01*
X5160000D01*
Y2553307D01*
D02*
G37*
G36*
X4980204Y2554528D02*
X4969796D01*
X4959743Y2551834D01*
X4950730Y2546630D01*
X4943370Y2539271D01*
X4938166Y2530257D01*
X4935472Y2520204D01*
Y2509796D01*
X4938166Y2499743D01*
X4943370Y2490729D01*
X4950730Y2483370D01*
X4959743Y2478166D01*
X4969796Y2475472D01*
X4980204D01*
X4990257Y2478166D01*
X4999270Y2483370D01*
X5006630Y2490729D01*
X5011834Y2499743D01*
X5014528Y2509796D01*
Y2520204D01*
X5011834Y2530257D01*
X5006630Y2539271D01*
X4999270Y2546630D01*
X4990257Y2551834D01*
X4980204Y2554528D01*
D02*
G37*
G36*
X4714528Y2510000D02*
X4680000D01*
Y2475472D01*
X4680204D01*
X4690257Y2478166D01*
X4699270Y2483370D01*
X4706630Y2490729D01*
X4711834Y2499743D01*
X4714528Y2509796D01*
Y2510000D01*
D02*
G37*
G36*
X4670000D02*
X4635472D01*
Y2509796D01*
X4638166Y2499743D01*
X4643370Y2490729D01*
X4650730Y2483370D01*
X4659743Y2478166D01*
X4669796Y2475472D01*
X4670000D01*
Y2510000D01*
D02*
G37*
G36*
X6876406Y2544606D02*
X6867294D01*
X6858493Y2542248D01*
X6850601Y2537692D01*
X6844158Y2531249D01*
X6839602Y2523358D01*
X6837244Y2514556D01*
Y2505444D01*
X6839602Y2496642D01*
X6844158Y2488751D01*
X6850601Y2482308D01*
X6858493Y2477752D01*
X6867294Y2475394D01*
X6876406D01*
X6885208Y2477752D01*
X6893099Y2482308D01*
X6899542Y2488751D01*
X6904098Y2496642D01*
X6906456Y2505444D01*
Y2514556D01*
X6904098Y2523358D01*
X6899542Y2531249D01*
X6893099Y2537692D01*
X6885208Y2542248D01*
X6876406Y2544606D01*
D02*
G37*
G36*
X6467018Y2518307D02*
X6465000D01*
Y2470000D01*
X6513307D01*
Y2472018D01*
X6509674Y2485576D01*
X6502656Y2497731D01*
X6492731Y2507656D01*
X6480576Y2514674D01*
X6467018Y2518307D01*
D02*
G37*
G36*
X6455000D02*
X6452982D01*
X6439424Y2514674D01*
X6427269Y2507656D01*
X6417344Y2497731D01*
X6410326Y2485576D01*
X6406693Y2472018D01*
Y2470000D01*
X6455000D01*
Y2518307D01*
D02*
G37*
G36*
X5815204Y2539528D02*
X5804796D01*
X5794743Y2536834D01*
X5785730Y2531630D01*
X5778370Y2524271D01*
X5773166Y2515257D01*
X5770472Y2505204D01*
Y2494796D01*
X5773166Y2484743D01*
X5778370Y2475729D01*
X5785730Y2468370D01*
X5794743Y2463166D01*
X5804796Y2460472D01*
X5815204D01*
X5825257Y2463166D01*
X5834270Y2468370D01*
X5841630Y2475729D01*
X5846834Y2484743D01*
X5849528Y2494796D01*
Y2505204D01*
X5846834Y2515257D01*
X5841630Y2524271D01*
X5834270Y2531630D01*
X5825257Y2536834D01*
X5815204Y2539528D01*
D02*
G37*
G36*
X5515204D02*
X5504796D01*
X5494743Y2536834D01*
X5485730Y2531630D01*
X5478370Y2524271D01*
X5473166Y2515257D01*
X5470472Y2505204D01*
Y2494796D01*
X5473166Y2484743D01*
X5478370Y2475729D01*
X5485730Y2468370D01*
X5494743Y2463166D01*
X5504796Y2460472D01*
X5515204D01*
X5525257Y2463166D01*
X5534270Y2468370D01*
X5541630Y2475729D01*
X5546834Y2484743D01*
X5549528Y2494796D01*
Y2505204D01*
X5546834Y2515257D01*
X5541630Y2524271D01*
X5534270Y2531630D01*
X5525257Y2536834D01*
X5515204Y2539528D01*
D02*
G37*
G36*
X5372018Y2553307D02*
X5357982D01*
X5344424Y2549674D01*
X5332269Y2542656D01*
X5322344Y2532731D01*
X5315326Y2520576D01*
X5311693Y2507018D01*
Y2492982D01*
X5315326Y2479424D01*
X5322344Y2467269D01*
X5332269Y2457344D01*
X5344424Y2450326D01*
X5357982Y2446693D01*
X5372018D01*
X5385576Y2450326D01*
X5397731Y2457344D01*
X5407656Y2467269D01*
X5414674Y2479424D01*
X5418307Y2492982D01*
Y2507018D01*
X5414674Y2520576D01*
X5407656Y2532731D01*
X5397731Y2542656D01*
X5385576Y2549674D01*
X5372018Y2553307D01*
D02*
G37*
G36*
X5218307Y2495000D02*
X5170000D01*
Y2446693D01*
X5172018D01*
X5185576Y2450326D01*
X5197731Y2457344D01*
X5207656Y2467269D01*
X5214674Y2479424D01*
X5218307Y2492982D01*
Y2495000D01*
D02*
G37*
G36*
X5160000D02*
X5111693D01*
Y2492982D01*
X5115326Y2479424D01*
X5122344Y2467269D01*
X5132269Y2457344D01*
X5144424Y2450326D01*
X5157982Y2446693D01*
X5160000D01*
Y2495000D01*
D02*
G37*
G36*
X4325204Y2514528D02*
X4314796D01*
X4304743Y2511834D01*
X4295730Y2506630D01*
X4288370Y2499271D01*
X4283166Y2490257D01*
X4280472Y2480204D01*
Y2469796D01*
X4283166Y2459743D01*
X4288370Y2450729D01*
X4295730Y2443370D01*
X4304743Y2438166D01*
X4314796Y2435472D01*
X4325204D01*
X4335257Y2438166D01*
X4344270Y2443370D01*
X4351630Y2450729D01*
X4356834Y2459743D01*
X4359528Y2469796D01*
Y2480204D01*
X4356834Y2490257D01*
X4351630Y2499271D01*
X4344270Y2506630D01*
X4335257Y2511834D01*
X4325204Y2514528D01*
D02*
G37*
G36*
X4025204D02*
X4014796D01*
X4004743Y2511834D01*
X3995729Y2506630D01*
X3988370Y2499271D01*
X3983166Y2490257D01*
X3980472Y2480204D01*
Y2469796D01*
X3983166Y2459743D01*
X3988370Y2450729D01*
X3995729Y2443370D01*
X4004743Y2438166D01*
X4014796Y2435472D01*
X4025204D01*
X4035257Y2438166D01*
X4044271Y2443370D01*
X4051630Y2450729D01*
X4056834Y2459743D01*
X4059528Y2469796D01*
Y2480204D01*
X4056834Y2490257D01*
X4051630Y2499271D01*
X4044271Y2506630D01*
X4035257Y2511834D01*
X4025204Y2514528D01*
D02*
G37*
G36*
X6513307Y2460000D02*
X6465000D01*
Y2411693D01*
X6467018D01*
X6480576Y2415326D01*
X6492731Y2422344D01*
X6502656Y2432269D01*
X6509674Y2444424D01*
X6513307Y2457982D01*
Y2460000D01*
D02*
G37*
G36*
X6455000D02*
X6406693D01*
Y2457982D01*
X6410326Y2444424D01*
X6417344Y2432269D01*
X6427269Y2422344D01*
X6439424Y2415326D01*
X6452982Y2411693D01*
X6455000D01*
Y2460000D01*
D02*
G37*
G36*
X7365204Y2469528D02*
X7354796D01*
X7344743Y2466834D01*
X7335730Y2461630D01*
X7328370Y2454271D01*
X7323166Y2445257D01*
X7320472Y2435204D01*
Y2424796D01*
X7323166Y2414743D01*
X7328370Y2405729D01*
X7335730Y2398370D01*
X7344743Y2393166D01*
X7354796Y2390472D01*
X7365204D01*
X7375257Y2393166D01*
X7384270Y2398370D01*
X7391630Y2405729D01*
X7396834Y2414743D01*
X7399528Y2424796D01*
Y2435204D01*
X7396834Y2445257D01*
X7391630Y2454271D01*
X7384270Y2461630D01*
X7375257Y2466834D01*
X7365204Y2469528D01*
D02*
G37*
G36*
X7202677D02*
X7123623D01*
Y2390472D01*
X7202677D01*
Y2469528D01*
D02*
G37*
G36*
X4025204Y2414528D02*
X4025000D01*
Y2380000D01*
X4059528D01*
Y2380204D01*
X4056834Y2390257D01*
X4051630Y2399271D01*
X4044271Y2406630D01*
X4035257Y2411834D01*
X4025204Y2414528D01*
D02*
G37*
G36*
X4015000D02*
X4014796D01*
X4004743Y2411834D01*
X3995729Y2406630D01*
X3988370Y2399271D01*
X3983166Y2390257D01*
X3980472Y2380204D01*
Y2380000D01*
X4015000D01*
Y2414528D01*
D02*
G37*
G36*
X4980204Y2454528D02*
X4969796D01*
X4959743Y2451834D01*
X4950730Y2446630D01*
X4943370Y2439271D01*
X4938166Y2430257D01*
X4935472Y2420204D01*
Y2409796D01*
X4938166Y2399743D01*
X4943370Y2390729D01*
X4950730Y2383370D01*
X4959743Y2378166D01*
X4969796Y2375472D01*
X4980204D01*
X4990257Y2378166D01*
X4999270Y2383370D01*
X5006630Y2390729D01*
X5011834Y2399743D01*
X5014528Y2409796D01*
Y2420204D01*
X5011834Y2430257D01*
X5006630Y2439271D01*
X4999270Y2446630D01*
X4990257Y2451834D01*
X4980204Y2454528D01*
D02*
G37*
G36*
X4680204D02*
X4669796D01*
X4659743Y2451834D01*
X4650730Y2446630D01*
X4643370Y2439271D01*
X4638166Y2430257D01*
X4635472Y2420204D01*
Y2409796D01*
X4638166Y2399743D01*
X4643370Y2390729D01*
X4650730Y2383370D01*
X4659743Y2378166D01*
X4669796Y2375472D01*
X4680204D01*
X4690257Y2378166D01*
X4699270Y2383370D01*
X4706630Y2390729D01*
X4711834Y2399743D01*
X4714528Y2409796D01*
Y2420204D01*
X4711834Y2430257D01*
X4706630Y2439271D01*
X4699270Y2446630D01*
X4690257Y2451834D01*
X4680204Y2454528D01*
D02*
G37*
G36*
X5815204Y2439528D02*
X5804796D01*
X5794743Y2436834D01*
X5785730Y2431630D01*
X5778370Y2424271D01*
X5773166Y2415257D01*
X5770472Y2405204D01*
Y2394796D01*
X5773166Y2384743D01*
X5778370Y2375729D01*
X5785730Y2368370D01*
X5794743Y2363166D01*
X5804796Y2360472D01*
X5815204D01*
X5825257Y2363166D01*
X5834270Y2368370D01*
X5841630Y2375729D01*
X5846834Y2384743D01*
X5849528Y2394796D01*
Y2405204D01*
X5846834Y2415257D01*
X5841630Y2424271D01*
X5834270Y2431630D01*
X5825257Y2436834D01*
X5815204Y2439528D01*
D02*
G37*
G36*
X5515204D02*
X5504796D01*
X5494743Y2436834D01*
X5485730Y2431630D01*
X5478370Y2424271D01*
X5473166Y2415257D01*
X5470472Y2405204D01*
Y2394796D01*
X5473166Y2384743D01*
X5478370Y2375729D01*
X5485730Y2368370D01*
X5494743Y2363166D01*
X5504796Y2360472D01*
X5515204D01*
X5525257Y2363166D01*
X5534270Y2368370D01*
X5541630Y2375729D01*
X5546834Y2384743D01*
X5549528Y2394796D01*
Y2405204D01*
X5546834Y2415257D01*
X5541630Y2424271D01*
X5534270Y2431630D01*
X5525257Y2436834D01*
X5515204Y2439528D01*
D02*
G37*
G36*
X12016658Y2379370D02*
X12003658D01*
X11991102Y2376006D01*
X11979844Y2369506D01*
X11970652Y2360314D01*
X11964924Y2350392D01*
X11685234D01*
X11679506Y2360314D01*
X11670314Y2369506D01*
X11659056Y2376006D01*
X11646500Y2379370D01*
X11633500D01*
X11620944Y2376006D01*
X11609686Y2369506D01*
X11600494Y2360314D01*
X11593994Y2349056D01*
X11590630Y2336500D01*
Y2323500D01*
X11593994Y2310944D01*
X11600494Y2299686D01*
X11609686Y2290494D01*
X11620944Y2283994D01*
X11633500Y2280630D01*
X11646500D01*
X11659056Y2283994D01*
X11670314Y2290494D01*
X11679506Y2299686D01*
X11685234Y2309608D01*
X11964924D01*
X11970652Y2299686D01*
X11979844Y2290494D01*
X11991102Y2283994D01*
X12003658Y2280630D01*
X12016658D01*
X12029214Y2283994D01*
X12040472Y2290494D01*
X12049664Y2299686D01*
X12056164Y2310944D01*
X12059528Y2323500D01*
Y2336500D01*
X12056164Y2349056D01*
X12049664Y2360314D01*
X12040472Y2369506D01*
X12029214Y2376006D01*
X12016658Y2379370D01*
D02*
G37*
G36*
X9886658D02*
X9873658D01*
X9861102Y2376006D01*
X9849844Y2369506D01*
X9840652Y2360314D01*
X9834924Y2350392D01*
X9545234D01*
X9539506Y2360314D01*
X9530314Y2369506D01*
X9519056Y2376006D01*
X9506500Y2379370D01*
X9493500D01*
X9480944Y2376006D01*
X9469686Y2369506D01*
X9460494Y2360314D01*
X9453994Y2349056D01*
X9450630Y2336500D01*
Y2323500D01*
X9453994Y2310944D01*
X9460494Y2299686D01*
X9469686Y2290494D01*
X9480944Y2283994D01*
X9493500Y2280630D01*
X9506500D01*
X9519056Y2283994D01*
X9530314Y2290494D01*
X9539506Y2299686D01*
X9545234Y2309608D01*
X9834924D01*
X9840652Y2299686D01*
X9849844Y2290494D01*
X9861102Y2283994D01*
X9873658Y2280630D01*
X9886658D01*
X9899214Y2283994D01*
X9910472Y2290494D01*
X9919664Y2299686D01*
X9926164Y2310944D01*
X9929528Y2323500D01*
Y2336500D01*
X9926164Y2349056D01*
X9919664Y2360314D01*
X9910472Y2369506D01*
X9899214Y2376006D01*
X9886658Y2379370D01*
D02*
G37*
G36*
X4059528Y2370000D02*
X4025000D01*
Y2335472D01*
X4025204D01*
X4035257Y2338166D01*
X4044271Y2343370D01*
X4051630Y2350729D01*
X4056834Y2359743D01*
X4059528Y2369796D01*
Y2370000D01*
D02*
G37*
G36*
X4015000D02*
X3980472D01*
Y2369796D01*
X3983166Y2359743D01*
X3988370Y2350729D01*
X3995729Y2343370D01*
X4004743Y2338166D01*
X4014796Y2335472D01*
X4015000D01*
Y2370000D01*
D02*
G37*
G36*
X13776500Y2379370D02*
X13775000D01*
Y2335000D01*
X13819370D01*
Y2336500D01*
X13816006Y2349056D01*
X13809506Y2360314D01*
X13800314Y2369506D01*
X13789056Y2376006D01*
X13776500Y2379370D01*
D02*
G37*
G36*
X13765000D02*
X13763500D01*
X13750944Y2376006D01*
X13739686Y2369506D01*
X13730494Y2360314D01*
X13723994Y2349056D01*
X13720630Y2336500D01*
Y2335000D01*
X13765000D01*
Y2379370D01*
D02*
G37*
G36*
X6157018Y2358307D02*
X6155000D01*
Y2310000D01*
X6203307D01*
Y2312018D01*
X6199674Y2325576D01*
X6192656Y2337731D01*
X6182731Y2347656D01*
X6170576Y2354674D01*
X6157018Y2358307D01*
D02*
G37*
G36*
X6145000D02*
X6142982D01*
X6129424Y2354674D01*
X6117269Y2347656D01*
X6107344Y2337731D01*
X6100326Y2325576D01*
X6096693Y2312018D01*
Y2310000D01*
X6145000D01*
Y2358307D01*
D02*
G37*
G36*
X3350463Y2381496D02*
X3339537D01*
X3328983Y2378668D01*
X3319521Y2373205D01*
X3311795Y2365479D01*
X3306332Y2356017D01*
X3303504Y2345463D01*
Y2334537D01*
X3306332Y2323983D01*
X3311795Y2314521D01*
X3319521Y2306795D01*
X3328983Y2301332D01*
X3339537Y2298504D01*
X3350463D01*
X3361017Y2301332D01*
X3370479Y2306795D01*
X3378205Y2314521D01*
X3383668Y2323983D01*
X3386496Y2334537D01*
Y2345463D01*
X3383668Y2356017D01*
X3378205Y2365479D01*
X3370479Y2373205D01*
X3361017Y2378668D01*
X3350463Y2381496D01*
D02*
G37*
G36*
X3135722Y2683465D02*
X3124278D01*
X3113223Y2680503D01*
X3103312Y2674780D01*
X3095220Y2666688D01*
X3089497Y2656777D01*
X3086535Y2645722D01*
Y2634278D01*
X3089497Y2623223D01*
X3095220Y2613312D01*
X3103312Y2605220D01*
X3113223Y2599497D01*
X3113686Y2599373D01*
Y2378493D01*
X3104521Y2373201D01*
X3096795Y2365475D01*
X3091332Y2356013D01*
X3088504Y2345459D01*
Y2334533D01*
X3091332Y2323979D01*
X3096795Y2314517D01*
X3104521Y2306791D01*
X3113983Y2301328D01*
X3124537Y2298500D01*
X3135463D01*
X3146017Y2301328D01*
X3155479Y2306791D01*
X3163205Y2314517D01*
X3168668Y2323979D01*
X3171496Y2334533D01*
Y2345459D01*
X3168668Y2356013D01*
X3163205Y2365475D01*
X3155479Y2373201D01*
X3146314Y2378493D01*
Y2599373D01*
X3146777Y2599497D01*
X3156688Y2605220D01*
X3164780Y2613312D01*
X3170503Y2623223D01*
X3173465Y2634278D01*
Y2645722D01*
X3170503Y2656777D01*
X3164780Y2666688D01*
X3156688Y2674780D01*
X3146777Y2680503D01*
X3135722Y2683465D01*
D02*
G37*
G36*
X3035463Y2381492D02*
X3024537D01*
X3013983Y2378664D01*
X3004521Y2373201D01*
X2996795Y2365475D01*
X2991332Y2356013D01*
X2988504Y2345459D01*
Y2334533D01*
X2991332Y2323979D01*
X2996795Y2314517D01*
X3004521Y2306791D01*
X3013983Y2301328D01*
X3024537Y2298500D01*
X3035463D01*
X3046017Y2301328D01*
X3055479Y2306791D01*
X3063205Y2314517D01*
X3068668Y2323979D01*
X3071496Y2334533D01*
Y2345459D01*
X3068668Y2356013D01*
X3063205Y2365475D01*
X3055479Y2373201D01*
X3046017Y2378664D01*
X3035463Y2381492D01*
D02*
G37*
G36*
X2720463D02*
X2709537D01*
X2698983Y2378664D01*
X2689521Y2373201D01*
X2681795Y2365475D01*
X2676332Y2356013D01*
X2673504Y2345459D01*
Y2334533D01*
X2676332Y2323979D01*
X2681795Y2314517D01*
X2689521Y2306791D01*
X2698983Y2301328D01*
X2709537Y2298500D01*
X2720463D01*
X2731017Y2301328D01*
X2740479Y2306791D01*
X2748205Y2314517D01*
X2753668Y2323979D01*
X2756496Y2334533D01*
Y2345459D01*
X2753668Y2356013D01*
X2748205Y2365475D01*
X2740479Y2373201D01*
X2731017Y2378664D01*
X2720463Y2381492D01*
D02*
G37*
G36*
X2505722Y2683465D02*
X2494278D01*
X2483223Y2680503D01*
X2473312Y2674780D01*
X2465220Y2666688D01*
X2459497Y2656777D01*
X2456535Y2645722D01*
Y2634278D01*
X2459497Y2623223D01*
X2465220Y2613312D01*
X2473312Y2605220D01*
X2483223Y2599497D01*
X2483686Y2599373D01*
Y2378493D01*
X2474521Y2373201D01*
X2466795Y2365475D01*
X2461332Y2356013D01*
X2458504Y2345459D01*
Y2334533D01*
X2461332Y2323979D01*
X2466795Y2314517D01*
X2474521Y2306791D01*
X2483983Y2301328D01*
X2494537Y2298500D01*
X2505463D01*
X2516017Y2301328D01*
X2525479Y2306791D01*
X2533205Y2314517D01*
X2538668Y2323979D01*
X2541496Y2334533D01*
Y2345459D01*
X2538668Y2356013D01*
X2533205Y2365475D01*
X2525479Y2373201D01*
X2516314Y2378493D01*
Y2599373D01*
X2516777Y2599497D01*
X2526688Y2605220D01*
X2534780Y2613312D01*
X2540503Y2623223D01*
X2543465Y2634278D01*
Y2645722D01*
X2540503Y2656777D01*
X2534780Y2666688D01*
X2526688Y2674780D01*
X2516777Y2680503D01*
X2505722Y2683465D01*
D02*
G37*
G36*
X2405463Y2381492D02*
X2394537D01*
X2383983Y2378664D01*
X2374521Y2373201D01*
X2366795Y2365475D01*
X2361332Y2356013D01*
X2358504Y2345459D01*
Y2334533D01*
X2361332Y2323979D01*
X2366795Y2314517D01*
X2374521Y2306791D01*
X2383983Y2301328D01*
X2394537Y2298500D01*
X2405463D01*
X2416017Y2301328D01*
X2425479Y2306791D01*
X2433205Y2314517D01*
X2438668Y2323979D01*
X2441496Y2334533D01*
Y2345459D01*
X2438668Y2356013D01*
X2433205Y2365475D01*
X2425479Y2373201D01*
X2416017Y2378664D01*
X2405463Y2381492D01*
D02*
G37*
G36*
X2090463D02*
X2079537D01*
X2068983Y2378664D01*
X2059521Y2373201D01*
X2051795Y2365475D01*
X2046332Y2356013D01*
X2043504Y2345459D01*
Y2334533D01*
X2046332Y2323979D01*
X2051795Y2314517D01*
X2059521Y2306791D01*
X2068983Y2301328D01*
X2079537Y2298500D01*
X2090463D01*
X2101017Y2301328D01*
X2110479Y2306791D01*
X2118205Y2314517D01*
X2123668Y2323979D01*
X2126496Y2334533D01*
Y2345459D01*
X2123668Y2356013D01*
X2118205Y2365475D01*
X2110479Y2373201D01*
X2101017Y2378664D01*
X2090463Y2381492D01*
D02*
G37*
G36*
X1875722Y2683465D02*
X1864278D01*
X1853223Y2680503D01*
X1843312Y2674780D01*
X1835220Y2666688D01*
X1829497Y2656777D01*
X1826535Y2645722D01*
Y2634278D01*
X1829497Y2623223D01*
X1835220Y2613312D01*
X1843312Y2605220D01*
X1853223Y2599497D01*
X1853687Y2599373D01*
Y2378493D01*
X1844521Y2373201D01*
X1836795Y2365475D01*
X1831332Y2356013D01*
X1828504Y2345459D01*
Y2334533D01*
X1831332Y2323979D01*
X1836795Y2314517D01*
X1844521Y2306791D01*
X1853983Y2301328D01*
X1864537Y2298500D01*
X1875463D01*
X1886017Y2301328D01*
X1895479Y2306791D01*
X1903205Y2314517D01*
X1908668Y2323979D01*
X1911496Y2334533D01*
Y2345459D01*
X1908668Y2356013D01*
X1903205Y2365475D01*
X1895479Y2373201D01*
X1886313Y2378493D01*
Y2599373D01*
X1886777Y2599497D01*
X1896688Y2605220D01*
X1904780Y2613312D01*
X1910503Y2623223D01*
X1913465Y2634278D01*
Y2645722D01*
X1910503Y2656777D01*
X1904780Y2666688D01*
X1896688Y2674780D01*
X1886777Y2680503D01*
X1875722Y2683465D01*
D02*
G37*
G36*
X1775463Y2381492D02*
X1764537D01*
X1753983Y2378664D01*
X1744521Y2373201D01*
X1736795Y2365475D01*
X1731332Y2356013D01*
X1728504Y2345459D01*
Y2334533D01*
X1731332Y2323979D01*
X1736795Y2314517D01*
X1744521Y2306791D01*
X1753983Y2301328D01*
X1764537Y2298500D01*
X1775463D01*
X1786017Y2301328D01*
X1795479Y2306791D01*
X1803205Y2314517D01*
X1808668Y2323979D01*
X1811496Y2334533D01*
Y2345459D01*
X1808668Y2356013D01*
X1803205Y2365475D01*
X1795479Y2373201D01*
X1786017Y2378664D01*
X1775463Y2381492D01*
D02*
G37*
G36*
X1460463D02*
X1449537D01*
X1438983Y2378664D01*
X1429521Y2373201D01*
X1421795Y2365475D01*
X1416332Y2356013D01*
X1413504Y2345459D01*
Y2334533D01*
X1416332Y2323979D01*
X1421795Y2314517D01*
X1429521Y2306791D01*
X1438983Y2301328D01*
X1449537Y2298500D01*
X1460463D01*
X1471017Y2301328D01*
X1480479Y2306791D01*
X1488205Y2314517D01*
X1493668Y2323979D01*
X1496496Y2334533D01*
Y2345459D01*
X1493668Y2356013D01*
X1488205Y2365475D01*
X1480479Y2373201D01*
X1471017Y2378664D01*
X1460463Y2381492D01*
D02*
G37*
G36*
X1245722Y2683465D02*
X1234278D01*
X1223223Y2680503D01*
X1213312Y2674780D01*
X1205220Y2666688D01*
X1199497Y2656777D01*
X1196535Y2645722D01*
Y2634278D01*
X1199497Y2623223D01*
X1205220Y2613312D01*
X1213312Y2605220D01*
X1223223Y2599497D01*
X1223687Y2599373D01*
Y2378493D01*
X1214521Y2373201D01*
X1206795Y2365475D01*
X1201332Y2356013D01*
X1198504Y2345459D01*
Y2334533D01*
X1201332Y2323979D01*
X1206795Y2314517D01*
X1214521Y2306791D01*
X1223983Y2301328D01*
X1234537Y2298500D01*
X1245463D01*
X1256017Y2301328D01*
X1265479Y2306791D01*
X1273205Y2314517D01*
X1278668Y2323979D01*
X1281496Y2334533D01*
Y2345459D01*
X1278668Y2356013D01*
X1273205Y2365475D01*
X1265479Y2373201D01*
X1256313Y2378493D01*
Y2599373D01*
X1256777Y2599497D01*
X1266688Y2605220D01*
X1274780Y2613312D01*
X1280503Y2623223D01*
X1283465Y2634278D01*
Y2645722D01*
X1280503Y2656777D01*
X1274780Y2666688D01*
X1266688Y2674780D01*
X1256777Y2680503D01*
X1245722Y2683465D01*
D02*
G37*
G36*
X1145463Y2381492D02*
X1134537D01*
X1123983Y2378664D01*
X1114521Y2373201D01*
X1106795Y2365475D01*
X1101332Y2356013D01*
X1098504Y2345459D01*
Y2334533D01*
X1101332Y2323979D01*
X1106795Y2314517D01*
X1114521Y2306791D01*
X1123983Y2301328D01*
X1134537Y2298500D01*
X1145463D01*
X1156017Y2301328D01*
X1165479Y2306791D01*
X1173205Y2314517D01*
X1178668Y2323979D01*
X1181496Y2334533D01*
Y2345459D01*
X1178668Y2356013D01*
X1173205Y2365475D01*
X1165479Y2373201D01*
X1156017Y2378664D01*
X1145463Y2381492D01*
D02*
G37*
G36*
X13819370Y2325000D02*
X13775000D01*
Y2280630D01*
X13776500D01*
X13789056Y2283994D01*
X13800314Y2290494D01*
X13809506Y2299686D01*
X13816006Y2310944D01*
X13819370Y2323500D01*
Y2325000D01*
D02*
G37*
G36*
X13765000D02*
X13720630D01*
Y2323500D01*
X13723994Y2310944D01*
X13730494Y2299686D01*
X13739686Y2290494D01*
X13750944Y2283994D01*
X13763500Y2280630D01*
X13765000D01*
Y2325000D01*
D02*
G37*
G36*
X7746658Y2379370D02*
X7733658D01*
X7721102Y2376006D01*
X7709844Y2369506D01*
X7700652Y2360314D01*
X7694152Y2349056D01*
X7690788Y2336500D01*
Y2323500D01*
X7694152Y2310944D01*
X7700652Y2299686D01*
X7709844Y2290494D01*
X7721102Y2283994D01*
X7733658Y2280630D01*
X7746658D01*
X7759214Y2283994D01*
X7770472Y2290494D01*
X7779664Y2299686D01*
X7786164Y2310944D01*
X7789528Y2323500D01*
Y2336500D01*
X7786164Y2349056D01*
X7779664Y2360314D01*
X7770472Y2369506D01*
X7759214Y2376006D01*
X7746658Y2379370D01*
D02*
G37*
G36*
X4025204Y2314528D02*
X4025000D01*
Y2280000D01*
X4059528D01*
Y2280204D01*
X4056834Y2290257D01*
X4051630Y2299271D01*
X4044271Y2306630D01*
X4035257Y2311834D01*
X4025204Y2314528D01*
D02*
G37*
G36*
X4015000D02*
X4014796D01*
X4004743Y2311834D01*
X3995729Y2306630D01*
X3988370Y2299271D01*
X3983166Y2290257D01*
X3980472Y2280204D01*
Y2280000D01*
X4015000D01*
Y2314528D01*
D02*
G37*
G36*
X4980204Y2354528D02*
X4969796D01*
X4959743Y2351834D01*
X4950730Y2346630D01*
X4943370Y2339271D01*
X4938166Y2330257D01*
X4935472Y2320204D01*
Y2309796D01*
X4938166Y2299743D01*
X4943370Y2290729D01*
X4950730Y2283370D01*
X4959743Y2278166D01*
X4969796Y2275472D01*
X4980204D01*
X4990257Y2278166D01*
X4999270Y2283370D01*
X5006630Y2290729D01*
X5011834Y2299743D01*
X5014528Y2309796D01*
Y2320204D01*
X5011834Y2330257D01*
X5006630Y2339271D01*
X4999270Y2346630D01*
X4990257Y2351834D01*
X4980204Y2354528D01*
D02*
G37*
G36*
X4680204D02*
X4669796D01*
X4659743Y2351834D01*
X4650730Y2346630D01*
X4643370Y2339271D01*
X4638166Y2330257D01*
X4635472Y2320204D01*
Y2309796D01*
X4638166Y2299743D01*
X4643370Y2290729D01*
X4650730Y2283370D01*
X4659743Y2278166D01*
X4669796Y2275472D01*
X4680204D01*
X4690257Y2278166D01*
X4699270Y2283370D01*
X4706630Y2290729D01*
X4711834Y2299743D01*
X4714528Y2309796D01*
Y2320204D01*
X4711834Y2330257D01*
X4706630Y2339271D01*
X4699270Y2346630D01*
X4690257Y2351834D01*
X4680204Y2354528D01*
D02*
G37*
G36*
X5815204Y2339528D02*
X5804796D01*
X5794743Y2336834D01*
X5785730Y2331630D01*
X5778370Y2324271D01*
X5773166Y2315257D01*
X5770472Y2305204D01*
Y2294796D01*
X5773166Y2284743D01*
X5778370Y2275729D01*
X5785730Y2268370D01*
X5794743Y2263166D01*
X5804796Y2260472D01*
X5815204D01*
X5825257Y2263166D01*
X5834270Y2268370D01*
X5841630Y2275729D01*
X5846834Y2284743D01*
X5849528Y2294796D01*
Y2305204D01*
X5846834Y2315257D01*
X5841630Y2324271D01*
X5834270Y2331630D01*
X5825257Y2336834D01*
X5815204Y2339528D01*
D02*
G37*
G36*
X6203307Y2300000D02*
X6155000D01*
Y2251693D01*
X6157018D01*
X6170576Y2255326D01*
X6182731Y2262344D01*
X6192656Y2272269D01*
X6199674Y2284424D01*
X6203307Y2297982D01*
Y2300000D01*
D02*
G37*
G36*
X6145000D02*
X6096693D01*
Y2297982D01*
X6100326Y2284424D01*
X6107344Y2272269D01*
X6117269Y2262344D01*
X6129424Y2255326D01*
X6142982Y2251693D01*
X6145000D01*
Y2300000D01*
D02*
G37*
G36*
X5957018Y2358307D02*
X5942982D01*
X5929424Y2354674D01*
X5917269Y2347656D01*
X5907344Y2337731D01*
X5900326Y2325576D01*
X5896693Y2312018D01*
Y2297982D01*
X5900326Y2284424D01*
X5907344Y2272269D01*
X5917269Y2262344D01*
X5929424Y2255326D01*
X5942982Y2251693D01*
X5957018D01*
X5970576Y2255326D01*
X5982731Y2262344D01*
X5992656Y2272269D01*
X5999674Y2284424D01*
X6003307Y2297982D01*
Y2312018D01*
X5999674Y2325576D01*
X5992656Y2337731D01*
X5982731Y2347656D01*
X5970576Y2354674D01*
X5957018Y2358307D01*
D02*
G37*
G36*
X4325204Y2314528D02*
X4314796D01*
X4304743Y2311834D01*
X4295730Y2306630D01*
X4288370Y2299271D01*
X4283166Y2290257D01*
X4280472Y2280204D01*
Y2269796D01*
X4283166Y2259743D01*
X4288370Y2250729D01*
X4295730Y2243370D01*
X4304743Y2238166D01*
X4314796Y2235472D01*
X4325204D01*
X4335257Y2238166D01*
X4344270Y2243370D01*
X4351630Y2250729D01*
X4356834Y2259743D01*
X4359528Y2269796D01*
Y2280204D01*
X4356834Y2290257D01*
X4351630Y2299271D01*
X4344270Y2306630D01*
X4335257Y2311834D01*
X4325204Y2314528D01*
D02*
G37*
G36*
X4059528Y2270000D02*
X4025000D01*
Y2235472D01*
X4025204D01*
X4035257Y2238166D01*
X4044271Y2243370D01*
X4051630Y2250729D01*
X4056834Y2259743D01*
X4059528Y2269796D01*
Y2270000D01*
D02*
G37*
G36*
X4015000D02*
X3980472D01*
Y2269796D01*
X3983166Y2259743D01*
X3988370Y2250729D01*
X3995729Y2243370D01*
X4004743Y2238166D01*
X4014796Y2235472D01*
X4015000D01*
Y2270000D01*
D02*
G37*
G36*
X6679556Y2544606D02*
X6670444D01*
X6661642Y2542248D01*
X6653751Y2537692D01*
X6647308Y2531249D01*
X6642752Y2523358D01*
X6640394Y2514556D01*
Y2505444D01*
X6642752Y2496642D01*
X6647308Y2488751D01*
X6653751Y2482308D01*
X6658686Y2479459D01*
Y2314212D01*
X6659928Y2307969D01*
X6663465Y2302677D01*
X6741869Y2224273D01*
X6740394Y2218768D01*
Y2209656D01*
X6742752Y2200854D01*
X6747308Y2192963D01*
X6753751Y2186520D01*
X6761642Y2181964D01*
X6770444Y2179606D01*
X6779556D01*
X6788358Y2181964D01*
X6796249Y2186520D01*
X6802692Y2192963D01*
X6807248Y2200854D01*
X6809606Y2209656D01*
Y2218768D01*
X6807248Y2227570D01*
X6802692Y2235461D01*
X6796249Y2241904D01*
X6788358Y2246460D01*
X6779556Y2248818D01*
X6770444D01*
X6764940Y2247343D01*
X6691314Y2320969D01*
Y2479459D01*
X6696249Y2482308D01*
X6702692Y2488751D01*
X6707248Y2496642D01*
X6709606Y2505444D01*
Y2514556D01*
X6707248Y2523358D01*
X6702692Y2531249D01*
X6696249Y2537692D01*
X6688358Y2542248D01*
X6679556Y2544606D01*
D02*
G37*
G36*
X4980204Y2254528D02*
X4969796D01*
X4959743Y2251834D01*
X4950730Y2246630D01*
X4943370Y2239271D01*
X4938166Y2230257D01*
X4935472Y2220204D01*
Y2209796D01*
X4938166Y2199743D01*
X4943370Y2190729D01*
X4950730Y2183370D01*
X4959743Y2178166D01*
X4969796Y2175472D01*
X4980204D01*
X4990257Y2178166D01*
X4999270Y2183370D01*
X5006630Y2190729D01*
X5011834Y2199743D01*
X5014528Y2209796D01*
Y2220204D01*
X5011834Y2230257D01*
X5006630Y2239271D01*
X4999270Y2246630D01*
X4990257Y2251834D01*
X4980204Y2254528D01*
D02*
G37*
G36*
X4680204D02*
X4669796D01*
X4659743Y2251834D01*
X4650730Y2246630D01*
X4643370Y2239271D01*
X4638166Y2230257D01*
X4635472Y2220204D01*
Y2209796D01*
X4638166Y2199743D01*
X4643370Y2190729D01*
X4650730Y2183370D01*
X4659743Y2178166D01*
X4669796Y2175472D01*
X4680204D01*
X4690257Y2178166D01*
X4699270Y2183370D01*
X4706630Y2190729D01*
X4711834Y2199743D01*
X4714528Y2209796D01*
Y2220204D01*
X4711834Y2230257D01*
X4706630Y2239271D01*
X4699270Y2246630D01*
X4690257Y2251834D01*
X4680204Y2254528D01*
D02*
G37*
G36*
X4325204Y2214528D02*
X4314796D01*
X4304743Y2211834D01*
X4295730Y2206630D01*
X4288370Y2199271D01*
X4283166Y2190257D01*
X4280472Y2180204D01*
Y2169796D01*
X4283166Y2159743D01*
X4288370Y2150729D01*
X4295730Y2143370D01*
X4304743Y2138166D01*
X4314796Y2135472D01*
X4325204D01*
X4335257Y2138166D01*
X4344270Y2143370D01*
X4351630Y2150729D01*
X4356834Y2159743D01*
X4359528Y2169796D01*
Y2180204D01*
X4356834Y2190257D01*
X4351630Y2199271D01*
X4344270Y2206630D01*
X4335257Y2211834D01*
X4325204Y2214528D01*
D02*
G37*
G36*
X6467018Y2183307D02*
X6465000D01*
Y2135000D01*
X6513307D01*
Y2137018D01*
X6509674Y2150576D01*
X6502656Y2162731D01*
X6492731Y2172656D01*
X6480576Y2179674D01*
X6467018Y2183307D01*
D02*
G37*
G36*
X6455000D02*
X6452982D01*
X6439424Y2179674D01*
X6427269Y2172656D01*
X6417344Y2162731D01*
X6410326Y2150576D01*
X6406693Y2137018D01*
Y2135000D01*
X6455000D01*
Y2183307D01*
D02*
G37*
G36*
X6877982Y2150394D02*
X6868870D01*
X6860069Y2148036D01*
X6852177Y2143480D01*
X6845734Y2137037D01*
X6841178Y2129146D01*
X6838820Y2120344D01*
Y2111232D01*
X6841178Y2102430D01*
X6845734Y2094539D01*
X6852177Y2088096D01*
X6860069Y2083540D01*
X6868870Y2081182D01*
X6877982D01*
X6886783Y2083540D01*
X6894675Y2088096D01*
X6901118Y2094539D01*
X6905674Y2102430D01*
X6908032Y2111232D01*
Y2120344D01*
X6905674Y2129146D01*
X6901118Y2137037D01*
X6894675Y2143480D01*
X6886783Y2148036D01*
X6877982Y2150394D01*
D02*
G37*
G36*
X6681130D02*
X6672018D01*
X6663217Y2148036D01*
X6655325Y2143480D01*
X6648882Y2137037D01*
X6644326Y2129146D01*
X6641968Y2120344D01*
Y2111232D01*
X6644326Y2102430D01*
X6648882Y2094539D01*
X6655325Y2088096D01*
X6663217Y2083540D01*
X6672018Y2081182D01*
X6681130D01*
X6689931Y2083540D01*
X6697823Y2088096D01*
X6704266Y2094539D01*
X6708822Y2102430D01*
X6711180Y2111232D01*
Y2120344D01*
X6708822Y2129146D01*
X6704266Y2137037D01*
X6697823Y2143480D01*
X6689931Y2148036D01*
X6681130Y2150394D01*
D02*
G37*
G36*
X6513307Y2125000D02*
X6465000D01*
Y2076693D01*
X6467018D01*
X6480576Y2080326D01*
X6492731Y2087344D01*
X6502656Y2097269D01*
X6509674Y2109424D01*
X6513307Y2122982D01*
Y2125000D01*
D02*
G37*
G36*
X6455000D02*
X6406693D01*
Y2122982D01*
X6410326Y2109424D01*
X6417344Y2097269D01*
X6427269Y2087344D01*
X6439424Y2080326D01*
X6452982Y2076693D01*
X6455000D01*
Y2125000D01*
D02*
G37*
G36*
X4980204Y2654528D02*
X4969796D01*
X4959743Y2651834D01*
X4950730Y2646630D01*
X4943370Y2639271D01*
X4938166Y2630257D01*
X4935472Y2620204D01*
Y2609796D01*
X4938166Y2599743D01*
X4943370Y2590729D01*
X4950730Y2583370D01*
X4959743Y2578166D01*
X4969796Y2575472D01*
X4980204D01*
X4990257Y2578166D01*
X4999270Y2583370D01*
X5006630Y2590729D01*
X5008869Y2594608D01*
X5391553D01*
X5423608Y2562553D01*
Y2366000D01*
X5425160Y2358196D01*
X5429581Y2351581D01*
X5471632Y2309530D01*
X5470472Y2305204D01*
Y2294796D01*
X5473166Y2284743D01*
X5478370Y2275729D01*
X5485730Y2268370D01*
X5494743Y2263166D01*
X5504796Y2260472D01*
X5515204D01*
X5525257Y2263166D01*
X5534270Y2268370D01*
X5541630Y2275729D01*
X5546834Y2284743D01*
X5549528Y2294796D01*
Y2305204D01*
X5548368Y2309530D01*
X5800470Y2561632D01*
X5804796Y2560472D01*
X5815204D01*
X5825257Y2563166D01*
X5834270Y2568370D01*
X5841630Y2575729D01*
X5843869Y2579608D01*
X6116553D01*
X6210421Y2485741D01*
X6210326Y2485576D01*
X6206693Y2472018D01*
Y2457982D01*
X6210326Y2444424D01*
X6217344Y2432269D01*
X6227269Y2422344D01*
X6239424Y2415326D01*
X6239608Y2415276D01*
Y2179724D01*
X6239424Y2179674D01*
X6227269Y2172656D01*
X6217344Y2162731D01*
X6210326Y2150576D01*
X6206693Y2137018D01*
Y2122982D01*
X6210326Y2109424D01*
X6217344Y2097269D01*
X6227269Y2087344D01*
X6239424Y2080326D01*
X6252982Y2076693D01*
X6267018D01*
X6280576Y2080326D01*
X6292731Y2087344D01*
X6302656Y2097269D01*
X6309674Y2109424D01*
X6313307Y2122982D01*
Y2137018D01*
X6309674Y2150576D01*
X6302656Y2162731D01*
X6292731Y2172656D01*
X6280576Y2179674D01*
X6280392Y2179724D01*
Y2415276D01*
X6280576Y2415326D01*
X6292731Y2422344D01*
X6302656Y2432269D01*
X6309674Y2444424D01*
X6313307Y2457982D01*
Y2472018D01*
X6309674Y2485576D01*
X6302656Y2497731D01*
X6292731Y2507656D01*
X6280576Y2514674D01*
X6267018Y2518307D01*
X6252982D01*
X6239424Y2514674D01*
X6239259Y2514579D01*
X6139419Y2614419D01*
X6132804Y2618840D01*
X6125000Y2620392D01*
X5843869D01*
X5841630Y2624271D01*
X5834270Y2631630D01*
X5825257Y2636834D01*
X5815204Y2639528D01*
X5804796D01*
X5794743Y2636834D01*
X5785730Y2631630D01*
X5778370Y2624271D01*
X5773166Y2615257D01*
X5770472Y2605204D01*
Y2594796D01*
X5771632Y2590470D01*
X5519530Y2338368D01*
X5515204Y2339528D01*
X5504796D01*
X5500470Y2338368D01*
X5464392Y2374447D01*
Y2571000D01*
X5462840Y2578804D01*
X5458419Y2585419D01*
X5414419Y2629419D01*
X5407804Y2633840D01*
X5400000Y2635392D01*
X5008869D01*
X5006630Y2639271D01*
X4999270Y2646630D01*
X4990257Y2651834D01*
X4980204Y2654528D01*
D02*
G37*
G36*
Y2154528D02*
X4969796D01*
X4959743Y2151834D01*
X4950730Y2146630D01*
X4943370Y2139271D01*
X4938166Y2130257D01*
X4935472Y2120204D01*
Y2109796D01*
X4938166Y2099743D01*
X4943370Y2090729D01*
X4950730Y2083370D01*
X4959743Y2078166D01*
X4969796Y2075472D01*
X4980204D01*
X4990257Y2078166D01*
X4999270Y2083370D01*
X5006630Y2090729D01*
X5011834Y2099743D01*
X5014528Y2109796D01*
Y2120204D01*
X5011834Y2130257D01*
X5006630Y2139271D01*
X4999270Y2146630D01*
X4990257Y2151834D01*
X4980204Y2154528D01*
D02*
G37*
G36*
X4680204D02*
X4669796D01*
X4659743Y2151834D01*
X4650730Y2146630D01*
X4643370Y2139271D01*
X4638166Y2130257D01*
X4635472Y2120204D01*
Y2109796D01*
X4638166Y2099743D01*
X4643370Y2090729D01*
X4650730Y2083370D01*
X4659743Y2078166D01*
X4669796Y2075472D01*
X4680204D01*
X4690257Y2078166D01*
X4699270Y2083370D01*
X4706630Y2090729D01*
X4711834Y2099743D01*
X4714528Y2109796D01*
Y2120204D01*
X4711834Y2130257D01*
X4706630Y2139271D01*
X4699270Y2146630D01*
X4690257Y2151834D01*
X4680204Y2154528D01*
D02*
G37*
G36*
X7413898Y2099528D02*
X7379370D01*
Y2065000D01*
X7413898D01*
Y2099528D01*
D02*
G37*
G36*
X2275722Y2683465D02*
X2264278D01*
X2253223Y2680503D01*
X2243312Y2674780D01*
X2235220Y2666688D01*
X2229497Y2656777D01*
X2226535Y2645722D01*
Y2634278D01*
X2229497Y2623223D01*
X2235220Y2613312D01*
X2243312Y2605220D01*
X2253223Y2599497D01*
X2264278Y2596535D01*
X2268686D01*
Y1980000D01*
X2269928Y1973757D01*
X2273465Y1968465D01*
X2326465Y1915465D01*
X2331757Y1911928D01*
X2338000Y1910687D01*
X2932000D01*
X2938243Y1911928D01*
X2943535Y1915465D01*
X3121757Y2093686D01*
X3240243D01*
X3465465Y1868465D01*
X3470757Y1864928D01*
X3477000Y1863687D01*
X4125000D01*
X4131243Y1864928D01*
X4136535Y1868465D01*
X4305921Y2037851D01*
X4314796Y2035473D01*
X4325204D01*
X4335257Y2038166D01*
X4344270Y2043370D01*
X4351630Y2050729D01*
X4356834Y2059743D01*
X4359528Y2069796D01*
Y2080204D01*
X4356834Y2090257D01*
X4351630Y2099271D01*
X4344270Y2106630D01*
X4335257Y2111834D01*
X4325204Y2114528D01*
X4314796D01*
X4304743Y2111834D01*
X4295730Y2106630D01*
X4288370Y2099271D01*
X4283166Y2090257D01*
X4280472Y2080204D01*
Y2069796D01*
X4282850Y2060921D01*
X4118243Y1896313D01*
X3483757D01*
X3258535Y2121535D01*
X3253243Y2125072D01*
X3247000Y2126314D01*
X3115000D01*
X3108757Y2125072D01*
X3103465Y2121535D01*
X2925243Y1943313D01*
X2344757D01*
X2301314Y1986757D01*
Y2609845D01*
X2304780Y2613312D01*
X2310503Y2623223D01*
X2313465Y2634278D01*
Y2645722D01*
X2310503Y2656777D01*
X2304780Y2666688D01*
X2296688Y2674780D01*
X2286777Y2680503D01*
X2275722Y2683465D01*
D02*
G37*
G36*
X7413898Y2055000D02*
X7379370D01*
Y2020473D01*
X7413898D01*
Y2055000D01*
D02*
G37*
G36*
X7327018Y2733307D02*
X7312982D01*
X7299424Y2729674D01*
X7287269Y2722656D01*
X7277344Y2712731D01*
X7270326Y2700576D01*
X7266693Y2687018D01*
Y2672982D01*
X7270326Y2659424D01*
X7277344Y2647269D01*
X7287269Y2637344D01*
X7299424Y2630326D01*
X7299608Y2630276D01*
Y2573447D01*
X7247155Y2520993D01*
X7242734Y2514378D01*
X7241182Y2506574D01*
Y2463869D01*
X7237303Y2461630D01*
X7229944Y2454271D01*
X7224740Y2445257D01*
X7222047Y2435204D01*
Y2424796D01*
X7224740Y2414743D01*
X7229944Y2405729D01*
X7237303Y2398370D01*
X7241182Y2396131D01*
Y2094056D01*
X7242734Y2086252D01*
X7247155Y2079637D01*
X7257262Y2069530D01*
X7256102Y2065204D01*
Y2054796D01*
X7258796Y2044743D01*
X7264000Y2035729D01*
X7271359Y2028370D01*
X7280373Y2023166D01*
X7290426Y2020473D01*
X7300834D01*
X7310887Y2023166D01*
X7319900Y2028370D01*
X7327260Y2035729D01*
X7329842Y2040203D01*
X7334842Y2038863D01*
Y2020473D01*
X7369370D01*
Y2060000D01*
Y2099528D01*
X7334842D01*
Y2081137D01*
X7329842Y2079797D01*
X7327260Y2084271D01*
X7319900Y2091630D01*
X7310887Y2096834D01*
X7300834Y2099528D01*
X7290426D01*
X7286100Y2098368D01*
X7281966Y2102503D01*
Y2396131D01*
X7285845Y2398370D01*
X7293204Y2405729D01*
X7298408Y2414743D01*
X7301101Y2424796D01*
Y2435204D01*
X7298408Y2445257D01*
X7293204Y2454271D01*
X7285845Y2461630D01*
X7281966Y2463869D01*
Y2498127D01*
X7334419Y2550581D01*
X7338840Y2557196D01*
X7340392Y2565000D01*
Y2630276D01*
X7340576Y2630326D01*
X7352731Y2637344D01*
X7362656Y2647269D01*
X7369674Y2659424D01*
X7373307Y2672982D01*
Y2687018D01*
X7369674Y2700576D01*
X7362656Y2712731D01*
X7352731Y2722656D01*
X7340576Y2729674D01*
X7327018Y2733307D01*
D02*
G37*
G36*
X4680204Y2054528D02*
X4680000D01*
Y2020000D01*
X4714528D01*
Y2020204D01*
X4711834Y2030257D01*
X4706630Y2039271D01*
X4699270Y2046630D01*
X4690257Y2051834D01*
X4680204Y2054528D01*
D02*
G37*
G36*
X4670000D02*
X4669796D01*
X4659743Y2051834D01*
X4650730Y2046630D01*
X4643370Y2039271D01*
X4638166Y2030257D01*
X4635472Y2020204D01*
Y2020000D01*
X4670000D01*
Y2054528D01*
D02*
G37*
G36*
X3450463Y2381496D02*
X3439537D01*
X3428983Y2378668D01*
X3419521Y2373205D01*
X3411795Y2365479D01*
X3406332Y2356017D01*
X3403504Y2345463D01*
Y2334537D01*
X3406332Y2323983D01*
X3411795Y2314521D01*
X3419521Y2306795D01*
X3428686Y2301503D01*
Y2070627D01*
X3428223Y2070503D01*
X3418312Y2064780D01*
X3410220Y2056688D01*
X3404497Y2046777D01*
X3401535Y2035722D01*
Y2024278D01*
X3404497Y2013223D01*
X3410220Y2003312D01*
X3418312Y1995220D01*
X3428223Y1989497D01*
X3439278Y1986535D01*
X3450722D01*
X3461777Y1989497D01*
X3471688Y1995220D01*
X3479780Y2003312D01*
X3485503Y2013223D01*
X3488465Y2024278D01*
Y2035722D01*
X3485503Y2046777D01*
X3479780Y2056688D01*
X3471688Y2064780D01*
X3461777Y2070503D01*
X3461314Y2070627D01*
Y2301503D01*
X3470479Y2306795D01*
X3478205Y2314521D01*
X3483668Y2323983D01*
X3486496Y2334537D01*
Y2345463D01*
X3483668Y2356017D01*
X3478205Y2365479D01*
X3470479Y2373205D01*
X3461017Y2378668D01*
X3450463Y2381496D01*
D02*
G37*
G36*
X2820463Y2381492D02*
X2809537D01*
X2798983Y2378664D01*
X2789521Y2373201D01*
X2781795Y2365475D01*
X2776332Y2356013D01*
X2773504Y2345459D01*
Y2334533D01*
X2776332Y2323979D01*
X2781795Y2314517D01*
X2789521Y2306791D01*
X2798686Y2301499D01*
Y2070627D01*
X2798223Y2070503D01*
X2788312Y2064780D01*
X2780220Y2056688D01*
X2774497Y2046777D01*
X2771535Y2035722D01*
Y2024278D01*
X2774497Y2013223D01*
X2780220Y2003312D01*
X2788312Y1995220D01*
X2798223Y1989497D01*
X2809278Y1986535D01*
X2820722D01*
X2831777Y1989497D01*
X2841688Y1995220D01*
X2849780Y2003312D01*
X2855503Y2013223D01*
X2858465Y2024278D01*
Y2035722D01*
X2855503Y2046777D01*
X2849780Y2056688D01*
X2841688Y2064780D01*
X2831777Y2070503D01*
X2831314Y2070627D01*
Y2301499D01*
X2840479Y2306791D01*
X2848205Y2314517D01*
X2853668Y2323979D01*
X2856496Y2334533D01*
Y2345459D01*
X2853668Y2356013D01*
X2848205Y2365475D01*
X2840479Y2373201D01*
X2831017Y2378664D01*
X2820463Y2381492D01*
D02*
G37*
G36*
X2590722Y2073465D02*
X2579278D01*
X2568223Y2070503D01*
X2558312Y2064780D01*
X2550220Y2056688D01*
X2544497Y2046777D01*
X2541535Y2035722D01*
Y2024278D01*
X2544497Y2013223D01*
X2550220Y2003312D01*
X2558312Y1995220D01*
X2568223Y1989497D01*
X2579278Y1986535D01*
X2590722D01*
X2601777Y1989497D01*
X2611688Y1995220D01*
X2619780Y2003312D01*
X2625503Y2013223D01*
X2628465Y2024278D01*
Y2035722D01*
X2625503Y2046777D01*
X2619780Y2056688D01*
X2611688Y2064780D01*
X2601777Y2070503D01*
X2590722Y2073465D01*
D02*
G37*
G36*
X2190463Y2381492D02*
X2179537D01*
X2168983Y2378664D01*
X2159521Y2373201D01*
X2151795Y2365475D01*
X2146332Y2356013D01*
X2143504Y2345459D01*
Y2334533D01*
X2146332Y2323979D01*
X2151795Y2314517D01*
X2159521Y2306791D01*
X2168686Y2301499D01*
Y2070627D01*
X2168223Y2070503D01*
X2158312Y2064780D01*
X2150220Y2056688D01*
X2144497Y2046777D01*
X2141535Y2035722D01*
Y2024278D01*
X2144497Y2013223D01*
X2150220Y2003312D01*
X2158312Y1995220D01*
X2168223Y1989497D01*
X2179278Y1986535D01*
X2190722D01*
X2201777Y1989497D01*
X2211688Y1995220D01*
X2219780Y2003312D01*
X2225503Y2013223D01*
X2228465Y2024278D01*
Y2035722D01*
X2225503Y2046777D01*
X2219780Y2056688D01*
X2211688Y2064780D01*
X2201777Y2070503D01*
X2201314Y2070627D01*
Y2301499D01*
X2210479Y2306791D01*
X2218205Y2314517D01*
X2223668Y2323979D01*
X2226496Y2334533D01*
Y2345459D01*
X2223668Y2356013D01*
X2218205Y2365475D01*
X2210479Y2373201D01*
X2201017Y2378664D01*
X2190463Y2381492D01*
D02*
G37*
G36*
X1960722Y2073465D02*
X1949278D01*
X1938223Y2070503D01*
X1928312Y2064780D01*
X1920220Y2056688D01*
X1914497Y2046777D01*
X1911535Y2035722D01*
Y2024278D01*
X1914497Y2013223D01*
X1920220Y2003312D01*
X1928312Y1995220D01*
X1938223Y1989497D01*
X1949278Y1986535D01*
X1960722D01*
X1971777Y1989497D01*
X1981688Y1995220D01*
X1989780Y2003312D01*
X1995503Y2013223D01*
X1998465Y2024278D01*
Y2035722D01*
X1995503Y2046777D01*
X1989780Y2056688D01*
X1981688Y2064780D01*
X1971777Y2070503D01*
X1960722Y2073465D01*
D02*
G37*
G36*
X1560463Y2381492D02*
X1549537D01*
X1538983Y2378664D01*
X1529521Y2373201D01*
X1521795Y2365475D01*
X1516332Y2356013D01*
X1513504Y2345459D01*
Y2334533D01*
X1516332Y2323979D01*
X1521795Y2314517D01*
X1529521Y2306791D01*
X1538687Y2301499D01*
Y2070627D01*
X1538223Y2070503D01*
X1528312Y2064780D01*
X1520220Y2056688D01*
X1514497Y2046777D01*
X1511535Y2035722D01*
Y2024278D01*
X1514497Y2013223D01*
X1520220Y2003312D01*
X1528312Y1995220D01*
X1538223Y1989497D01*
X1549278Y1986535D01*
X1560722D01*
X1571777Y1989497D01*
X1581688Y1995220D01*
X1589780Y2003312D01*
X1595503Y2013223D01*
X1598465Y2024278D01*
Y2035722D01*
X1595503Y2046777D01*
X1589780Y2056688D01*
X1581688Y2064780D01*
X1571777Y2070503D01*
X1571313Y2070627D01*
Y2301499D01*
X1580479Y2306791D01*
X1588205Y2314517D01*
X1593668Y2323979D01*
X1596496Y2334533D01*
Y2345459D01*
X1593668Y2356013D01*
X1588205Y2365475D01*
X1580479Y2373201D01*
X1571017Y2378664D01*
X1560463Y2381492D01*
D02*
G37*
G36*
X4025204Y2014527D02*
X4025000D01*
Y1980000D01*
X4059528D01*
Y1980204D01*
X4056834Y1990257D01*
X4051630Y1999271D01*
X4044271Y2006630D01*
X4035257Y2011834D01*
X4025204Y2014527D01*
D02*
G37*
G36*
X4015000D02*
X4014796D01*
X4004743Y2011834D01*
X3995729Y2006630D01*
X3988370Y1999271D01*
X3983166Y1990257D01*
X3980472Y1980204D01*
Y1980000D01*
X4015000D01*
Y2014527D01*
D02*
G37*
G36*
X4980204Y2054528D02*
X4969796D01*
X4959743Y2051834D01*
X4950730Y2046630D01*
X4943370Y2039271D01*
X4938166Y2030257D01*
X4935472Y2020204D01*
Y2009796D01*
X4938166Y1999743D01*
X4943370Y1990729D01*
X4950730Y1983370D01*
X4959743Y1978166D01*
X4969796Y1975473D01*
X4980204D01*
X4990257Y1978166D01*
X4999270Y1983370D01*
X5006630Y1990729D01*
X5011834Y1999743D01*
X5014528Y2009796D01*
Y2020204D01*
X5011834Y2030257D01*
X5006630Y2039271D01*
X4999270Y2046630D01*
X4990257Y2051834D01*
X4980204Y2054528D01*
D02*
G37*
G36*
X4714528Y2010000D02*
X4680000D01*
Y1975473D01*
X4680204D01*
X4690257Y1978166D01*
X4699270Y1983370D01*
X4706630Y1990729D01*
X4711834Y1999743D01*
X4714528Y2009796D01*
Y2010000D01*
D02*
G37*
G36*
X4670000D02*
X4635472D01*
Y2009796D01*
X4638166Y1999743D01*
X4643370Y1990729D01*
X4650730Y1983370D01*
X4659743Y1978166D01*
X4669796Y1975473D01*
X4670000D01*
Y2010000D01*
D02*
G37*
G36*
X4325204Y2014527D02*
X4314796D01*
X4304743Y2011834D01*
X4295730Y2006630D01*
X4288370Y1999271D01*
X4283166Y1990257D01*
X4280472Y1980204D01*
Y1969796D01*
X4283166Y1959743D01*
X4288370Y1950729D01*
X4295730Y1943370D01*
X4304743Y1938166D01*
X4314796Y1935473D01*
X4325204D01*
X4335257Y1938166D01*
X4344270Y1943370D01*
X4351630Y1950729D01*
X4356834Y1959743D01*
X4359528Y1969796D01*
Y1980204D01*
X4356834Y1990257D01*
X4351630Y1999271D01*
X4344270Y2006630D01*
X4335257Y2011834D01*
X4325204Y2014527D01*
D02*
G37*
G36*
X4059528Y1970000D02*
X4025000D01*
Y1935473D01*
X4025204D01*
X4035257Y1938166D01*
X4044271Y1943370D01*
X4051630Y1950729D01*
X4056834Y1959743D01*
X4059528Y1969796D01*
Y1970000D01*
D02*
G37*
G36*
X4015000D02*
X3980472D01*
Y1969796D01*
X3983166Y1959743D01*
X3988370Y1950729D01*
X3995729Y1943370D01*
X4004743Y1938166D01*
X4014796Y1935473D01*
X4015000D01*
Y1970000D01*
D02*
G37*
G36*
X4325204Y2414528D02*
X4314796D01*
X4304743Y2411834D01*
X4295730Y2406630D01*
X4288370Y2399271D01*
X4283166Y2390257D01*
X4280472Y2380204D01*
Y2369796D01*
X4283166Y2359743D01*
X4288370Y2350729D01*
X4295730Y2343370D01*
X4304743Y2338166D01*
X4314796Y2335472D01*
X4325204D01*
X4335257Y2338166D01*
X4344270Y2343370D01*
X4351415Y2350514D01*
X4398686Y2303243D01*
Y1931757D01*
X4318243Y1851313D01*
X3416757D01*
X3255263Y2012808D01*
X3255503Y2013223D01*
X3258465Y2024278D01*
Y2035722D01*
X3255503Y2046777D01*
X3249780Y2056688D01*
X3241688Y2064780D01*
X3231777Y2070503D01*
X3220722Y2073465D01*
X3209278D01*
X3198223Y2070503D01*
X3188312Y2064780D01*
X3180220Y2056688D01*
X3174497Y2046777D01*
X3171535Y2035722D01*
Y2024278D01*
X3174497Y2013223D01*
X3180220Y2003312D01*
X3188312Y1995220D01*
X3198223Y1989497D01*
X3209278Y1986535D01*
X3220722D01*
X3231777Y1989497D01*
X3232192Y1989737D01*
X3398465Y1823465D01*
X3403757Y1819928D01*
X3410000Y1818687D01*
X4325000D01*
X4331243Y1819928D01*
X4336535Y1823465D01*
X4426535Y1913465D01*
X4430072Y1918757D01*
X4431314Y1925000D01*
Y2310000D01*
X4430072Y2316243D01*
X4426535Y2321535D01*
X4361535Y2386535D01*
X4357023Y2389550D01*
X4356834Y2390257D01*
X4351630Y2399271D01*
X4344270Y2406630D01*
X4335257Y2411834D01*
X4325204Y2414528D01*
D02*
G37*
%LPD*%
D10*
X4415000Y1925000D02*
Y2310000D01*
X4350000Y2375000D02*
X4415000Y2310000D01*
X4320000Y2375000D02*
X4350000D01*
X4325000Y1835000D02*
X4415000Y1925000D01*
X4125000Y1880000D02*
X4320000Y2075000D01*
X3477000Y1880000D02*
X4125000D01*
X3247000Y2110000D02*
X3477000Y1880000D01*
X3410000Y1835000D02*
X4325000D01*
X3215000Y2030000D02*
X3410000Y1835000D01*
X5510000Y2313184D02*
X5527579Y2317579D01*
X5510000Y2300000D02*
Y2313184D01*
X3115000Y2110000D02*
X3247000D01*
X2932000Y1927000D02*
X3115000Y2110000D01*
X2285000Y1980000D02*
X2338000Y1927000D01*
X2285000Y1980000D02*
Y2625000D01*
X2338000Y1927000D02*
X2932000D01*
X2270000Y2640000D02*
X2285000Y2625000D01*
X6675000Y2314212D02*
Y2510000D01*
Y2314212D02*
X6775000Y2214212D01*
X4234000Y2489000D02*
X4320000Y2575000D01*
X4234000Y2199000D02*
Y2489000D01*
X4160000Y2125000D02*
X4234000Y2199000D01*
X3940000Y2125000D02*
X4160000D01*
X3845000Y2030000D02*
X3940000Y2125000D01*
X1240000Y2339996D02*
Y2640000D01*
X1555000Y2030000D02*
Y2339996D01*
X1870000D02*
Y2640000D01*
X2185000Y2030000D02*
Y2339996D01*
X2500000D02*
Y2640000D01*
X2815000Y2030000D02*
Y2339996D01*
X3130000D02*
Y2640000D01*
X3445000Y2030000D02*
Y2340000D01*
D11*
X5400000Y2615000D02*
X5444000Y2571000D01*
Y2366000D02*
Y2571000D01*
Y2366000D02*
X5510000Y2300000D01*
X4150000Y2505000D02*
X4320000Y2675000D01*
X4150000Y2270000D02*
Y2505000D01*
X4055000Y2175000D02*
X4150000Y2270000D01*
X4020000Y2175000D02*
X4055000D01*
X5527579Y2317579D02*
X5810000Y2600000D01*
X7320000Y2565000D02*
Y2680000D01*
X7261574Y2506574D02*
X7320000Y2565000D01*
X7261574Y2430000D02*
Y2506574D01*
Y2094056D02*
Y2430000D01*
Y2094056D02*
X7295630Y2060000D01*
X4975000Y2615000D02*
X5400000D01*
X5810000Y2600000D02*
X6125000D01*
X6260000Y2465000D01*
Y2130000D02*
Y2465000D01*
X9500000Y2330000D02*
X9880158D01*
X11640000D02*
X12010158D01*
D12*
X5165000Y2500000D02*
D03*
X5365000D02*
D03*
X6260000Y2465000D02*
D03*
X6460000D02*
D03*
X6260000Y2130000D02*
D03*
X6460000D02*
D03*
X5950000Y2305000D02*
D03*
X6150000D02*
D03*
X7320000Y2680000D02*
D03*
X7520000D02*
D03*
D13*
X7740158Y2330000D02*
D03*
X9500000D02*
D03*
X11640000D02*
D03*
X9880158D02*
D03*
X13770000D02*
D03*
X12010158D02*
D03*
D14*
X7374370Y2060000D02*
D03*
X5510000Y2600000D02*
D03*
X4675000Y2615000D02*
D03*
X4020000Y2675000D02*
D03*
X7163150Y2430000D02*
D03*
D15*
X7295630Y2060000D02*
D03*
X5810000Y2300000D02*
D03*
Y2400000D02*
D03*
Y2500000D02*
D03*
Y2600000D02*
D03*
X5510000Y2300000D02*
D03*
Y2400000D02*
D03*
Y2500000D02*
D03*
X4975000Y2015000D02*
D03*
Y2115000D02*
D03*
Y2215000D02*
D03*
Y2315000D02*
D03*
Y2415000D02*
D03*
Y2515000D02*
D03*
Y2615000D02*
D03*
X4675000Y2015000D02*
D03*
Y2115000D02*
D03*
Y2215000D02*
D03*
Y2315000D02*
D03*
Y2415000D02*
D03*
Y2515000D02*
D03*
X4320000Y1975000D02*
D03*
Y2075000D02*
D03*
Y2175000D02*
D03*
Y2275000D02*
D03*
Y2375000D02*
D03*
Y2475000D02*
D03*
Y2575000D02*
D03*
Y2675000D02*
D03*
X4020000Y1975000D02*
D03*
Y2075000D02*
D03*
Y2175000D02*
D03*
Y2275000D02*
D03*
Y2375000D02*
D03*
Y2475000D02*
D03*
Y2575000D02*
D03*
X7360000Y2430000D02*
D03*
X7261574D02*
D03*
D16*
X3030000Y2339996D02*
D03*
X3130000D02*
D03*
X1140000D02*
D03*
X1240000D02*
D03*
X3345000Y2340000D02*
D03*
X3445000D02*
D03*
X1455000Y2339996D02*
D03*
X1555000D02*
D03*
X1770000D02*
D03*
X1870000D02*
D03*
X2085000D02*
D03*
X2185000D02*
D03*
X2400000D02*
D03*
X2500000D02*
D03*
X2715000D02*
D03*
X2815000D02*
D03*
D17*
X2900000Y2640000D02*
D03*
X2500000D02*
D03*
X1955000Y2030000D02*
D03*
X1555000D02*
D03*
X3845000D02*
D03*
X3445000D02*
D03*
X1640000Y2640000D02*
D03*
X1240000D02*
D03*
X2270000D02*
D03*
X1870000D02*
D03*
X2585000Y2030000D02*
D03*
X2185000D02*
D03*
X3215000D02*
D03*
X2815000D02*
D03*
X3530000Y2640000D02*
D03*
X3130000D02*
D03*
D18*
X6873426Y2115788D02*
D03*
X6775000Y2214212D02*
D03*
X6676574Y2115788D02*
D03*
X6871850Y2510000D02*
D03*
X6773426Y2608426D02*
D03*
X6675000Y2510000D02*
D03*
%TF.MD5,5cf0008296fb0bb7f92446dc41a33eaa*%
M02*
