%TF.GenerationSoftware,Altium Limited,DefaultClient, ()*%
G04 Layer_Physical_Order=2*
G04 Layer_Color=16711680*
G04 Board_Origin=0|0*
%FSLAX26Y26*%
%MOIN*%
%TF.SameCoordinates,E9855A05-1A0A-438E-9AA8-48BE9703F153*%
%TF.FilePolarity,Positive*%
%TF.FileFunction,Copper,L2,Bot,Signal*%
%TF.Part,Single*%
G01*
G75*
%TA.AperFunction,Conductor*%
%ADD10C,0.012000*%
%ADD11C,0.020000*%
%TA.AperFunction,ComponentPad*%
%ADD12C,0.086614*%
%ADD13C,0.078740*%
%ADD14R,0.059055X0.059055*%
%ADD15C,0.059055*%
%ADD16C,0.062992*%
%ADD17C,0.066929*%
%ADD18C,0.049213*%
G36*
X14000000Y1800000D02*
X1000000D01*
Y2880000D01*
X14000000D01*
Y1800000D01*
D02*
G37*
%LPC*%
G36*
X7527018Y2733307D02*
X7525000D01*
Y2685000D01*
X7573307D01*
Y2687018D01*
X7569674Y2700576D01*
X7562656Y2712731D01*
X7552731Y2722656D01*
X7540576Y2729674D01*
X7527018Y2733307D01*
D02*
G37*
G36*
X7515000D02*
X7512982D01*
X7499424Y2729674D01*
X7487269Y2722656D01*
X7477344Y2712731D01*
X7470326Y2700576D01*
X7466693Y2687018D01*
Y2685000D01*
X7515000D01*
Y2733307D01*
D02*
G37*
G36*
X7573307Y2675000D02*
X7525000D01*
Y2626693D01*
X7527018D01*
X7540576Y2630326D01*
X7552731Y2637344D01*
X7562656Y2647269D01*
X7569674Y2659424D01*
X7573307Y2672982D01*
Y2675000D01*
D02*
G37*
G36*
X7515000D02*
X7466693D01*
Y2672982D01*
X7470326Y2659424D01*
X7477344Y2647269D01*
X7487269Y2637344D01*
X7499424Y2630326D01*
X7512982Y2626693D01*
X7515000D01*
Y2675000D01*
D02*
G37*
G36*
X7327018Y2733307D02*
X7312982D01*
X7299424Y2729674D01*
X7287269Y2722656D01*
X7277344Y2712731D01*
X7270326Y2700576D01*
X7266693Y2687018D01*
Y2672982D01*
X7270326Y2659424D01*
X7277344Y2647269D01*
X7287269Y2637344D01*
X7299424Y2630326D01*
X7312982Y2626693D01*
X7327018D01*
X7340576Y2630326D01*
X7352731Y2637344D01*
X7362656Y2647269D01*
X7369674Y2659424D01*
X7373307Y2672982D01*
Y2687018D01*
X7369674Y2700576D01*
X7362656Y2712731D01*
X7352731Y2722656D01*
X7340576Y2729674D01*
X7327018Y2733307D01*
D02*
G37*
G36*
X5549528Y2639528D02*
X5515000D01*
Y2605000D01*
X5549528D01*
Y2639528D01*
D02*
G37*
G36*
X5505000D02*
X5470472D01*
Y2605000D01*
X5505000D01*
Y2639528D01*
D02*
G37*
G36*
X3135722Y2683465D02*
X3124278D01*
X3113223Y2680503D01*
X3103312Y2674780D01*
X3095220Y2666688D01*
X3089497Y2656777D01*
X3086535Y2645722D01*
Y2634278D01*
X3089497Y2623223D01*
X3095220Y2613312D01*
X3103312Y2605220D01*
X3113223Y2599497D01*
X3124278Y2596535D01*
X3135722D01*
X3146777Y2599497D01*
X3156688Y2605220D01*
X3164780Y2613312D01*
X3170503Y2623223D01*
X3173465Y2634278D01*
Y2645722D01*
X3170503Y2656777D01*
X3164780Y2666688D01*
X3156688Y2674780D01*
X3146777Y2680503D01*
X3135722Y2683465D01*
D02*
G37*
G36*
X2505722D02*
X2494278D01*
X2483223Y2680503D01*
X2473312Y2674780D01*
X2465220Y2666688D01*
X2459497Y2656777D01*
X2456535Y2645722D01*
Y2634278D01*
X2459497Y2623223D01*
X2465220Y2613312D01*
X2473312Y2605220D01*
X2483223Y2599497D01*
X2494278Y2596535D01*
X2505722D01*
X2516777Y2599497D01*
X2526688Y2605220D01*
X2534780Y2613312D01*
X2540503Y2623223D01*
X2543465Y2634278D01*
Y2645722D01*
X2540503Y2656777D01*
X2534780Y2666688D01*
X2526688Y2674780D01*
X2516777Y2680503D01*
X2505722Y2683465D01*
D02*
G37*
G36*
X2275722D02*
X2264278D01*
X2253223Y2680503D01*
X2243312Y2674780D01*
X2235220Y2666688D01*
X2229497Y2656777D01*
X2226535Y2645722D01*
Y2634278D01*
X2229497Y2623223D01*
X2235220Y2613312D01*
X2243312Y2605220D01*
X2253223Y2599497D01*
X2264278Y2596535D01*
X2275722D01*
X2286777Y2599497D01*
X2296688Y2605220D01*
X2304780Y2613312D01*
X2310503Y2623223D01*
X2313465Y2634278D01*
Y2645722D01*
X2310503Y2656777D01*
X2304780Y2666688D01*
X2296688Y2674780D01*
X2286777Y2680503D01*
X2275722Y2683465D01*
D02*
G37*
G36*
X1875722D02*
X1864278D01*
X1853223Y2680503D01*
X1843312Y2674780D01*
X1835220Y2666688D01*
X1829497Y2656777D01*
X1826535Y2645722D01*
Y2634278D01*
X1829497Y2623223D01*
X1835220Y2613312D01*
X1843312Y2605220D01*
X1853223Y2599497D01*
X1864278Y2596535D01*
X1875722D01*
X1886777Y2599497D01*
X1896688Y2605220D01*
X1904780Y2613312D01*
X1910503Y2623223D01*
X1913465Y2634278D01*
Y2645722D01*
X1910503Y2656777D01*
X1904780Y2666688D01*
X1896688Y2674780D01*
X1886777Y2680503D01*
X1875722Y2683465D01*
D02*
G37*
G36*
X1245722D02*
X1234278D01*
X1223223Y2680503D01*
X1213312Y2674780D01*
X1205220Y2666688D01*
X1199497Y2656777D01*
X1196535Y2645722D01*
Y2634278D01*
X1199497Y2623223D01*
X1205220Y2613312D01*
X1213312Y2605220D01*
X1223223Y2599497D01*
X1234278Y2596535D01*
X1245722D01*
X1256777Y2599497D01*
X1266688Y2605220D01*
X1274780Y2613312D01*
X1280503Y2623223D01*
X1283465Y2634278D01*
Y2645722D01*
X1280503Y2656777D01*
X1274780Y2666688D01*
X1266688Y2674780D01*
X1256777Y2680503D01*
X1245722Y2683465D01*
D02*
G37*
G36*
X4850000Y2760392D02*
X4385000D01*
X4377196Y2758840D01*
X4370581Y2754419D01*
X4329530Y2713368D01*
X4325204Y2714528D01*
X4314796D01*
X4304743Y2711834D01*
X4295730Y2706630D01*
X4288370Y2699271D01*
X4283166Y2690257D01*
X4280472Y2680204D01*
Y2669796D01*
X4283166Y2659743D01*
X4288370Y2650729D01*
X4292786Y2646314D01*
X4290715Y2641314D01*
X4181757D01*
X4136535Y2686535D01*
X4131243Y2690072D01*
X4125000Y2691314D01*
X4059528D01*
Y2714528D01*
X3980472D01*
Y2635472D01*
X4059528D01*
Y2658686D01*
X4118243D01*
X4163465Y2613465D01*
X4168757Y2609928D01*
X4175000Y2608686D01*
X4290715D01*
X4292786Y2603686D01*
X4288370Y2599271D01*
X4283166Y2590257D01*
X4280472Y2580204D01*
Y2569796D01*
X4282349Y2562793D01*
X4277866Y2560205D01*
X4251535Y2586535D01*
X4246243Y2590072D01*
X4240000Y2591314D01*
X4056224D01*
X4051630Y2599271D01*
X4044271Y2606630D01*
X4035257Y2611834D01*
X4025204Y2614528D01*
X4014796D01*
X4004743Y2611834D01*
X3995729Y2606630D01*
X3988370Y2599271D01*
X3983166Y2590257D01*
X3980472Y2580204D01*
Y2569796D01*
X3983166Y2559743D01*
X3988370Y2550729D01*
X3992786Y2546314D01*
X3990715Y2541314D01*
X3651757D01*
X3570263Y2622808D01*
X3570503Y2623223D01*
X3573465Y2634278D01*
Y2645722D01*
X3570503Y2656777D01*
X3564780Y2666688D01*
X3556688Y2674780D01*
X3546777Y2680503D01*
X3535722Y2683465D01*
X3524278D01*
X3513223Y2680503D01*
X3503312Y2674780D01*
X3495220Y2666688D01*
X3489497Y2656777D01*
X3486535Y2645722D01*
Y2634278D01*
X3489497Y2623223D01*
X3495220Y2613312D01*
X3503312Y2605220D01*
X3513223Y2599497D01*
X3524278Y2596535D01*
X3535722D01*
X3546777Y2599497D01*
X3547192Y2599737D01*
X3633465Y2513465D01*
X3638757Y2509928D01*
X3645000Y2508686D01*
X3990715D01*
X3992786Y2503686D01*
X3988370Y2499271D01*
X3983166Y2490257D01*
X3980472Y2480204D01*
Y2469796D01*
X3983166Y2459743D01*
X3988370Y2450729D01*
X3995729Y2443370D01*
X4004743Y2438166D01*
X4014796Y2435472D01*
X4025204D01*
X4034079Y2437851D01*
X4058465Y2413465D01*
X4063757Y2409928D01*
X4070000Y2408686D01*
X4290715D01*
X4292786Y2403686D01*
X4288370Y2399271D01*
X4283166Y2390257D01*
X4280472Y2380204D01*
Y2369796D01*
X4283166Y2359743D01*
X4288370Y2350729D01*
X4295730Y2343370D01*
X4304743Y2338166D01*
X4314796Y2335472D01*
X4325204D01*
X4335257Y2338166D01*
X4344270Y2343370D01*
X4351630Y2350729D01*
X4356834Y2359743D01*
X4359528Y2369796D01*
Y2380204D01*
X4356834Y2390257D01*
X4351630Y2399271D01*
X4347214Y2403686D01*
X4349285Y2408686D01*
X4358243D01*
X4637850Y2129079D01*
X4635472Y2120204D01*
Y2109796D01*
X4638166Y2099743D01*
X4643370Y2090729D01*
X4650730Y2083370D01*
X4659743Y2078166D01*
X4669796Y2075472D01*
X4680204D01*
X4690257Y2078166D01*
X4699270Y2083370D01*
X4706630Y2090729D01*
X4711834Y2099743D01*
X4714528Y2109796D01*
Y2120204D01*
X4711834Y2130257D01*
X4706630Y2139271D01*
X4699270Y2146630D01*
X4690257Y2151834D01*
X4680204Y2154528D01*
X4669796D01*
X4660921Y2152149D01*
X4376535Y2436535D01*
X4371243Y2440072D01*
X4365000Y2441314D01*
X4349285D01*
X4347214Y2446314D01*
X4351630Y2450729D01*
X4356834Y2459743D01*
X4359528Y2469796D01*
Y2480204D01*
X4356834Y2490257D01*
X4351630Y2499271D01*
X4344270Y2506630D01*
X4341623Y2508159D01*
X4342963Y2513159D01*
X4353771D01*
X4637850Y2229079D01*
X4635472Y2220204D01*
Y2209796D01*
X4638166Y2199743D01*
X4643370Y2190729D01*
X4650730Y2183370D01*
X4659743Y2178166D01*
X4669796Y2175472D01*
X4680204D01*
X4690257Y2178166D01*
X4699270Y2183370D01*
X4706630Y2190729D01*
X4711834Y2199743D01*
X4714528Y2209796D01*
Y2220204D01*
X4711834Y2230257D01*
X4706630Y2239271D01*
X4699270Y2246630D01*
X4690257Y2251834D01*
X4680204Y2254528D01*
X4669796D01*
X4660921Y2252149D01*
X4372063Y2541007D01*
X4366771Y2544544D01*
X4360528Y2545785D01*
X4353219D01*
X4351305Y2550405D01*
X4351630Y2550729D01*
X4356834Y2559743D01*
X4359528Y2569796D01*
Y2580204D01*
X4356834Y2590257D01*
X4351630Y2599271D01*
X4347214Y2603686D01*
X4349285Y2608686D01*
X4358243D01*
X4637850Y2329079D01*
X4635472Y2320204D01*
Y2309796D01*
X4638166Y2299743D01*
X4643370Y2290729D01*
X4650730Y2283370D01*
X4659743Y2278166D01*
X4669796Y2275472D01*
X4680204D01*
X4690257Y2278166D01*
X4699270Y2283370D01*
X4706630Y2290729D01*
X4711834Y2299743D01*
X4714528Y2309796D01*
Y2320204D01*
X4711834Y2330257D01*
X4706630Y2339271D01*
X4699270Y2346630D01*
X4690257Y2351834D01*
X4680204Y2354528D01*
X4669796D01*
X4660921Y2352149D01*
X4376535Y2636535D01*
X4371243Y2640072D01*
X4365000Y2641314D01*
X4349285D01*
X4347214Y2646314D01*
X4351630Y2650729D01*
X4356834Y2659743D01*
X4359528Y2669796D01*
Y2680204D01*
X4358368Y2684530D01*
X4393447Y2719608D01*
X4841553D01*
X4936632Y2624530D01*
X4935472Y2620204D01*
Y2609796D01*
X4938166Y2599743D01*
X4943370Y2590729D01*
X4944167Y2589933D01*
X4942253Y2585314D01*
X4822757D01*
X4781535Y2626535D01*
X4776243Y2630072D01*
X4770000Y2631314D01*
X4714528D01*
Y2654528D01*
X4635472D01*
Y2575472D01*
X4714528D01*
Y2598686D01*
X4763243D01*
X4804465Y2557465D01*
X4809757Y2553928D01*
X4816000Y2552686D01*
X4951220D01*
X4952560Y2547686D01*
X4950730Y2546630D01*
X4943370Y2539271D01*
X4938166Y2530257D01*
X4935472Y2520204D01*
Y2509796D01*
X4938166Y2499743D01*
X4943370Y2490729D01*
X4950730Y2483370D01*
X4959743Y2478166D01*
X4969796Y2475472D01*
X4980204D01*
X4990257Y2478166D01*
X4999270Y2483370D01*
X5006630Y2490729D01*
X5011834Y2499743D01*
X5014528Y2509796D01*
Y2520204D01*
X5011834Y2530257D01*
X5006630Y2539271D01*
X4999270Y2546630D01*
X4997440Y2547686D01*
X4998780Y2552686D01*
X5048686D01*
Y2400000D01*
X5049928Y2393757D01*
X5053465Y2388465D01*
X5058757Y2384928D01*
X5065000Y2383686D01*
X5473776D01*
X5478370Y2375729D01*
X5485730Y2368370D01*
X5494743Y2363166D01*
X5504796Y2360472D01*
X5515204D01*
X5525257Y2363166D01*
X5534270Y2368370D01*
X5541630Y2375729D01*
X5546834Y2384743D01*
X5549528Y2394796D01*
Y2405204D01*
X5546834Y2415257D01*
X5541630Y2424271D01*
X5534270Y2431630D01*
X5525257Y2436834D01*
X5515204Y2439528D01*
X5504796D01*
X5494743Y2436834D01*
X5485730Y2431630D01*
X5478370Y2424271D01*
X5473776Y2416314D01*
X5081314D01*
Y2569000D01*
X5080072Y2575243D01*
X5076535Y2580535D01*
X5071243Y2584072D01*
X5065000Y2585314D01*
X5007747D01*
X5005833Y2589933D01*
X5006630Y2590729D01*
X5011834Y2599743D01*
X5014528Y2609796D01*
Y2620204D01*
X5011834Y2630257D01*
X5006630Y2639271D01*
X4999270Y2646630D01*
X4990257Y2651834D01*
X4980204Y2654528D01*
X4969796D01*
X4965470Y2653368D01*
X4864419Y2754419D01*
X4857804Y2758840D01*
X4850000Y2760392D01*
D02*
G37*
G36*
X5815204Y2639528D02*
X5804796D01*
X5794743Y2636834D01*
X5785730Y2631630D01*
X5778370Y2624271D01*
X5773166Y2615257D01*
X5770472Y2605204D01*
Y2594796D01*
X5773166Y2584743D01*
X5778370Y2575729D01*
X5785730Y2568370D01*
X5794743Y2563166D01*
X5804796Y2560472D01*
X5815204D01*
X5825257Y2563166D01*
X5834270Y2568370D01*
X5841630Y2575729D01*
X5846834Y2584743D01*
X5849528Y2594796D01*
Y2605204D01*
X5846834Y2615257D01*
X5841630Y2624271D01*
X5834270Y2631630D01*
X5825257Y2636834D01*
X5815204Y2639528D01*
D02*
G37*
G36*
X5549528Y2595000D02*
X5515000D01*
Y2560472D01*
X5549528D01*
Y2595000D01*
D02*
G37*
G36*
X5505000D02*
X5470472D01*
Y2560472D01*
X5505000D01*
Y2595000D01*
D02*
G37*
G36*
X4680204Y2554528D02*
X4680000D01*
Y2520000D01*
X4714528D01*
Y2520204D01*
X4711834Y2530257D01*
X4706630Y2539271D01*
X4699270Y2546630D01*
X4690257Y2551834D01*
X4680204Y2554528D01*
D02*
G37*
G36*
X4670000D02*
X4669796D01*
X4659743Y2551834D01*
X4650730Y2546630D01*
X4643370Y2539271D01*
X4638166Y2530257D01*
X4635472Y2520204D01*
Y2520000D01*
X4670000D01*
Y2554528D01*
D02*
G37*
G36*
X5172018Y2553307D02*
X5170000D01*
Y2505000D01*
X5218307D01*
Y2507018D01*
X5214674Y2520576D01*
X5207656Y2532731D01*
X5197731Y2542656D01*
X5185576Y2549674D01*
X5172018Y2553307D01*
D02*
G37*
G36*
X5160000D02*
X5157982D01*
X5144424Y2549674D01*
X5132269Y2542656D01*
X5122344Y2532731D01*
X5115326Y2520576D01*
X5111693Y2507018D01*
Y2505000D01*
X5160000D01*
Y2553307D01*
D02*
G37*
G36*
X4714528Y2510000D02*
X4680000D01*
Y2475472D01*
X4680204D01*
X4690257Y2478166D01*
X4699270Y2483370D01*
X4706630Y2490729D01*
X4711834Y2499743D01*
X4714528Y2509796D01*
Y2510000D01*
D02*
G37*
G36*
X4670000D02*
X4635472D01*
Y2509796D01*
X4638166Y2499743D01*
X4643370Y2490729D01*
X4650730Y2483370D01*
X4659743Y2478166D01*
X4669796Y2475472D01*
X4670000D01*
Y2510000D01*
D02*
G37*
G36*
X6876406Y2544606D02*
X6867294D01*
X6858493Y2542248D01*
X6850601Y2537692D01*
X6844158Y2531249D01*
X6839602Y2523358D01*
X6837244Y2514556D01*
Y2505444D01*
X6839602Y2496642D01*
X6844158Y2488751D01*
X6850601Y2482308D01*
X6858493Y2477752D01*
X6867294Y2475394D01*
X6876406D01*
X6885208Y2477752D01*
X6893099Y2482308D01*
X6899542Y2488751D01*
X6904098Y2496642D01*
X6906456Y2505444D01*
Y2514556D01*
X6904098Y2523358D01*
X6899542Y2531249D01*
X6893099Y2537692D01*
X6885208Y2542248D01*
X6876406Y2544606D01*
D02*
G37*
G36*
X6040000Y2601314D02*
X6033757Y2600072D01*
X6028465Y2596535D01*
X5948243Y2516314D01*
X5846224D01*
X5841630Y2524271D01*
X5834270Y2531630D01*
X5825257Y2536834D01*
X5815204Y2539528D01*
X5804796D01*
X5794743Y2536834D01*
X5785730Y2531630D01*
X5778370Y2524271D01*
X5773166Y2515257D01*
X5770472Y2505204D01*
Y2494796D01*
X5773166Y2484743D01*
X5778370Y2475729D01*
X5785730Y2468370D01*
X5794743Y2463166D01*
X5804796Y2460472D01*
X5815204D01*
X5825257Y2463166D01*
X5834270Y2468370D01*
X5841630Y2475729D01*
X5846224Y2483686D01*
X5955000D01*
X5961243Y2484928D01*
X5966535Y2488465D01*
X6046757Y2568686D01*
X6593243D01*
X6641869Y2520061D01*
X6640394Y2514556D01*
Y2505444D01*
X6642752Y2496642D01*
X6647308Y2488751D01*
X6653751Y2482308D01*
X6661642Y2477752D01*
X6670444Y2475394D01*
X6679556D01*
X6688358Y2477752D01*
X6696249Y2482308D01*
X6702692Y2488751D01*
X6707248Y2496642D01*
X6709606Y2505444D01*
Y2514556D01*
X6707248Y2523358D01*
X6702692Y2531249D01*
X6696249Y2537692D01*
X6688358Y2542248D01*
X6679556Y2544606D01*
X6670444D01*
X6664940Y2543131D01*
X6611535Y2596535D01*
X6606243Y2600072D01*
X6600000Y2601314D01*
X6040001D01*
X6040000Y2601314D01*
D02*
G37*
G36*
X6467018Y2518307D02*
X6465000D01*
Y2470000D01*
X6513307D01*
Y2472018D01*
X6509674Y2485576D01*
X6502656Y2497731D01*
X6492731Y2507656D01*
X6480576Y2514674D01*
X6467018Y2518307D01*
D02*
G37*
G36*
X6455000D02*
X6452982D01*
X6439424Y2514674D01*
X6427269Y2507656D01*
X6417344Y2497731D01*
X6410326Y2485576D01*
X6406693Y2472018D01*
Y2470000D01*
X6455000D01*
Y2518307D01*
D02*
G37*
G36*
X5218307Y2495000D02*
X5170000D01*
Y2446693D01*
X5172018D01*
X5185576Y2450326D01*
X5197731Y2457344D01*
X5207656Y2467269D01*
X5214674Y2479424D01*
X5218307Y2492982D01*
Y2495000D01*
D02*
G37*
G36*
X5160000D02*
X5111693D01*
Y2492982D01*
X5115326Y2479424D01*
X5122344Y2467269D01*
X5132269Y2457344D01*
X5144424Y2450326D01*
X5157982Y2446693D01*
X5160000D01*
Y2495000D01*
D02*
G37*
G36*
X6513307Y2460000D02*
X6465000D01*
Y2411693D01*
X6467018D01*
X6480576Y2415326D01*
X6492731Y2422344D01*
X6502656Y2432269D01*
X6509674Y2444424D01*
X6513307Y2457982D01*
Y2460000D01*
D02*
G37*
G36*
X6455000D02*
X6406693D01*
Y2457982D01*
X6410326Y2444424D01*
X6417344Y2432269D01*
X6427269Y2422344D01*
X6439424Y2415326D01*
X6452982Y2411693D01*
X6455000D01*
Y2460000D01*
D02*
G37*
G36*
X6267018Y2518307D02*
X6252982D01*
X6239424Y2514674D01*
X6227269Y2507656D01*
X6217344Y2497731D01*
X6210326Y2485576D01*
X6206693Y2472018D01*
Y2457982D01*
X6210326Y2444424D01*
X6217344Y2432269D01*
X6227269Y2422344D01*
X6239424Y2415326D01*
X6252982Y2411693D01*
X6267018D01*
X6280576Y2415326D01*
X6292731Y2422344D01*
X6302656Y2432269D01*
X6309674Y2444424D01*
X6313307Y2457982D01*
Y2472018D01*
X6309674Y2485576D01*
X6302656Y2497731D01*
X6292731Y2507656D01*
X6280576Y2514674D01*
X6267018Y2518307D01*
D02*
G37*
G36*
X6777982Y2643032D02*
X6768870D01*
X6760069Y2640674D01*
X6752177Y2636118D01*
X6745734Y2629675D01*
X6741178Y2621784D01*
X6738820Y2612982D01*
Y2603870D01*
X6741178Y2595068D01*
X6745734Y2587177D01*
X6752177Y2580734D01*
X6757113Y2577885D01*
Y2469183D01*
X6689243Y2401314D01*
X5956757D01*
X5946535Y2411535D01*
X5941243Y2415072D01*
X5935000Y2416314D01*
X5846224D01*
X5841630Y2424271D01*
X5834270Y2431630D01*
X5825257Y2436834D01*
X5815204Y2439528D01*
X5804796D01*
X5794743Y2436834D01*
X5785730Y2431630D01*
X5778370Y2424271D01*
X5773776Y2416314D01*
X5616757D01*
X5547150Y2485921D01*
X5549528Y2494796D01*
Y2505204D01*
X5546834Y2515257D01*
X5541630Y2524271D01*
X5534270Y2531630D01*
X5525257Y2536834D01*
X5515204Y2539528D01*
X5504796D01*
X5494743Y2536834D01*
X5485730Y2531630D01*
X5478370Y2524271D01*
X5473776Y2516314D01*
X5415816D01*
X5414674Y2520576D01*
X5407656Y2532731D01*
X5397731Y2542656D01*
X5385576Y2549674D01*
X5372018Y2553307D01*
X5357982D01*
X5344424Y2549674D01*
X5332269Y2542656D01*
X5322344Y2532731D01*
X5315326Y2520576D01*
X5311693Y2507018D01*
Y2492982D01*
X5315326Y2479424D01*
X5322344Y2467269D01*
X5332269Y2457344D01*
X5344424Y2450326D01*
X5357982Y2446693D01*
X5372018D01*
X5385576Y2450326D01*
X5397731Y2457344D01*
X5407656Y2467269D01*
X5414674Y2479424D01*
X5415816Y2483686D01*
X5473776D01*
X5478370Y2475729D01*
X5485730Y2468370D01*
X5494743Y2463166D01*
X5504796Y2460472D01*
X5515204D01*
X5524079Y2462851D01*
X5598465Y2388465D01*
X5603757Y2384928D01*
X5610000Y2383686D01*
X5610001Y2383686D01*
X5773776D01*
X5778370Y2375729D01*
X5785730Y2368370D01*
X5794743Y2363166D01*
X5804796Y2360472D01*
X5815204D01*
X5825257Y2363166D01*
X5834270Y2368370D01*
X5841630Y2375729D01*
X5846224Y2383686D01*
X5928243D01*
X5938465Y2373465D01*
X5943757Y2369928D01*
X5950000Y2368686D01*
X6696000D01*
X6702243Y2369928D01*
X6707535Y2373465D01*
X6784961Y2450891D01*
X6788498Y2456183D01*
X6789739Y2462426D01*
Y2577885D01*
X6794675Y2580734D01*
X6801118Y2587177D01*
X6805674Y2595068D01*
X6808032Y2603870D01*
Y2612982D01*
X6805674Y2621784D01*
X6801118Y2629675D01*
X6794675Y2636118D01*
X6786783Y2640674D01*
X6777982Y2643032D01*
D02*
G37*
G36*
X7365204Y2469528D02*
X7354796D01*
X7344743Y2466834D01*
X7335730Y2461630D01*
X7328370Y2454271D01*
X7323166Y2445257D01*
X7320472Y2435204D01*
Y2424796D01*
X7323166Y2414743D01*
X7328370Y2405729D01*
X7335730Y2398370D01*
X7344743Y2393166D01*
X7354796Y2390472D01*
X7365204D01*
X7375257Y2393166D01*
X7384270Y2398370D01*
X7391630Y2405729D01*
X7396834Y2414743D01*
X7399528Y2424796D01*
Y2435204D01*
X7396834Y2445257D01*
X7391630Y2454271D01*
X7384270Y2461630D01*
X7375257Y2466834D01*
X7365204Y2469528D01*
D02*
G37*
G36*
X7266778D02*
X7256370D01*
X7246317Y2466834D01*
X7237303Y2461630D01*
X7229944Y2454271D01*
X7224740Y2445257D01*
X7222047Y2435204D01*
Y2424796D01*
X7224740Y2414743D01*
X7229944Y2405729D01*
X7237303Y2398370D01*
X7246317Y2393166D01*
X7256370Y2390472D01*
X7266778D01*
X7276831Y2393166D01*
X7285845Y2398370D01*
X7293204Y2405729D01*
X7298408Y2414743D01*
X7301101Y2424796D01*
Y2435204D01*
X7298408Y2445257D01*
X7293204Y2454271D01*
X7285845Y2461630D01*
X7276831Y2466834D01*
X7266778Y2469528D01*
D02*
G37*
G36*
X4025204Y2414528D02*
X4025000D01*
Y2380000D01*
X4059528D01*
Y2380204D01*
X4056834Y2390257D01*
X4051630Y2399271D01*
X4044271Y2406630D01*
X4035257Y2411834D01*
X4025204Y2414528D01*
D02*
G37*
G36*
X4015000D02*
X4014796D01*
X4004743Y2411834D01*
X3995729Y2406630D01*
X3988370Y2399271D01*
X3983166Y2390257D01*
X3980472Y2380204D01*
Y2380000D01*
X4015000D01*
Y2414528D01*
D02*
G37*
G36*
X4980204Y2454528D02*
X4969796D01*
X4959743Y2451834D01*
X4950730Y2446630D01*
X4943370Y2439271D01*
X4938166Y2430257D01*
X4935472Y2420204D01*
Y2409796D01*
X4938166Y2399743D01*
X4943370Y2390729D01*
X4950730Y2383370D01*
X4959743Y2378166D01*
X4969796Y2375472D01*
X4980204D01*
X4990257Y2378166D01*
X4999270Y2383370D01*
X5006630Y2390729D01*
X5011834Y2399743D01*
X5014528Y2409796D01*
Y2420204D01*
X5011834Y2430257D01*
X5006630Y2439271D01*
X4999270Y2446630D01*
X4990257Y2451834D01*
X4980204Y2454528D01*
D02*
G37*
G36*
X4680204D02*
X4669796D01*
X4659743Y2451834D01*
X4650730Y2446630D01*
X4643370Y2439271D01*
X4638166Y2430257D01*
X4635472Y2420204D01*
Y2409796D01*
X4638166Y2399743D01*
X4643370Y2390729D01*
X4650730Y2383370D01*
X4659743Y2378166D01*
X4669796Y2375472D01*
X4680204D01*
X4690257Y2378166D01*
X4699270Y2383370D01*
X4706630Y2390729D01*
X4711834Y2399743D01*
X4714528Y2409796D01*
Y2420204D01*
X4711834Y2430257D01*
X4706630Y2439271D01*
X4699270Y2446630D01*
X4690257Y2451834D01*
X4680204Y2454528D01*
D02*
G37*
G36*
X13776500Y2379370D02*
X13775000D01*
Y2335000D01*
X13819370D01*
Y2336500D01*
X13816006Y2349056D01*
X13809506Y2360314D01*
X13800314Y2369506D01*
X13789056Y2376006D01*
X13776500Y2379370D01*
D02*
G37*
G36*
X13765000D02*
X13763500D01*
X13750944Y2376006D01*
X13739686Y2369506D01*
X13730494Y2360314D01*
X13723994Y2349056D01*
X13720630Y2336500D01*
Y2335000D01*
X13765000D01*
Y2379370D01*
D02*
G37*
G36*
X5957018Y2358307D02*
X5942982D01*
X5929424Y2354674D01*
X5917269Y2347656D01*
X5907344Y2337731D01*
X5900326Y2325576D01*
X5899184Y2321314D01*
X5870000D01*
X5863757Y2320072D01*
X5858465Y2316535D01*
X5858243Y2316314D01*
X5846224D01*
X5841630Y2324271D01*
X5834270Y2331630D01*
X5825257Y2336834D01*
X5815204Y2339528D01*
X5804796D01*
X5794743Y2336834D01*
X5785730Y2331630D01*
X5778370Y2324271D01*
X5773166Y2315257D01*
X5770472Y2305204D01*
Y2294796D01*
X5773166Y2284743D01*
X5778370Y2275729D01*
X5785730Y2268370D01*
X5794743Y2263166D01*
X5804796Y2260472D01*
X5815204D01*
X5825257Y2263166D01*
X5834270Y2268370D01*
X5841630Y2275729D01*
X5846224Y2283686D01*
X5865000D01*
X5871243Y2284928D01*
X5876535Y2288465D01*
X5876757Y2288686D01*
X5899184D01*
X5900326Y2284424D01*
X5907344Y2272269D01*
X5917269Y2262344D01*
X5929424Y2255326D01*
X5942982Y2251693D01*
X5957018D01*
X5970576Y2255326D01*
X5982731Y2262344D01*
X5992656Y2272269D01*
X5999674Y2284424D01*
X6003307Y2297982D01*
Y2312018D01*
X5999674Y2325576D01*
X5992656Y2337731D01*
X5982731Y2347656D01*
X5970576Y2354674D01*
X5957018Y2358307D01*
D02*
G37*
G36*
X6157018D02*
X6155000D01*
Y2310000D01*
X6203307D01*
Y2312018D01*
X6199674Y2325576D01*
X6192656Y2337731D01*
X6182731Y2347656D01*
X6170576Y2354674D01*
X6157018Y2358307D01*
D02*
G37*
G36*
X6145000D02*
X6142982D01*
X6129424Y2354674D01*
X6117269Y2347656D01*
X6107344Y2337731D01*
X6100326Y2325576D01*
X6096693Y2312018D01*
Y2310000D01*
X6145000D01*
Y2358307D01*
D02*
G37*
G36*
X3135463Y2381492D02*
X3124537D01*
X3113983Y2378664D01*
X3104521Y2373201D01*
X3096795Y2365475D01*
X3091332Y2356013D01*
X3088504Y2345459D01*
Y2334533D01*
X3091332Y2323979D01*
X3096795Y2314517D01*
X3104521Y2306791D01*
X3113983Y2301328D01*
X3124537Y2298500D01*
X3135463D01*
X3146017Y2301328D01*
X3155479Y2306791D01*
X3163205Y2314517D01*
X3168668Y2323979D01*
X3171496Y2334533D01*
Y2345459D01*
X3168668Y2356013D01*
X3163205Y2365475D01*
X3155479Y2373201D01*
X3146017Y2378664D01*
X3135463Y2381492D01*
D02*
G37*
G36*
X2820463D02*
X2809537D01*
X2798983Y2378664D01*
X2789521Y2373201D01*
X2781795Y2365475D01*
X2776332Y2356013D01*
X2773504Y2345459D01*
Y2334533D01*
X2776332Y2323979D01*
X2781795Y2314517D01*
X2789521Y2306791D01*
X2798983Y2301328D01*
X2809537Y2298500D01*
X2820463D01*
X2831017Y2301328D01*
X2840479Y2306791D01*
X2848205Y2314517D01*
X2853668Y2323979D01*
X2856496Y2334533D01*
Y2345459D01*
X2853668Y2356013D01*
X2848205Y2365475D01*
X2840479Y2373201D01*
X2831017Y2378664D01*
X2820463Y2381492D01*
D02*
G37*
G36*
X2505463D02*
X2494537D01*
X2483983Y2378664D01*
X2474521Y2373201D01*
X2466795Y2365475D01*
X2461332Y2356013D01*
X2458504Y2345459D01*
Y2334533D01*
X2461332Y2323979D01*
X2466795Y2314517D01*
X2474521Y2306791D01*
X2483983Y2301328D01*
X2494537Y2298500D01*
X2505463D01*
X2516017Y2301328D01*
X2525479Y2306791D01*
X2533205Y2314517D01*
X2538668Y2323979D01*
X2541496Y2334533D01*
Y2345459D01*
X2538668Y2356013D01*
X2533205Y2365475D01*
X2525479Y2373201D01*
X2516017Y2378664D01*
X2505463Y2381492D01*
D02*
G37*
G36*
X2190463D02*
X2179537D01*
X2168983Y2378664D01*
X2159521Y2373201D01*
X2151795Y2365475D01*
X2146332Y2356013D01*
X2143504Y2345459D01*
Y2334533D01*
X2146332Y2323979D01*
X2151795Y2314517D01*
X2159521Y2306791D01*
X2168983Y2301328D01*
X2179537Y2298500D01*
X2190463D01*
X2201017Y2301328D01*
X2210479Y2306791D01*
X2218205Y2314517D01*
X2223668Y2323979D01*
X2226496Y2334533D01*
Y2345459D01*
X2223668Y2356013D01*
X2218205Y2365475D01*
X2210479Y2373201D01*
X2201017Y2378664D01*
X2190463Y2381492D01*
D02*
G37*
G36*
X1875463D02*
X1864537D01*
X1853983Y2378664D01*
X1844521Y2373201D01*
X1836795Y2365475D01*
X1831332Y2356013D01*
X1828504Y2345459D01*
Y2334533D01*
X1831332Y2323979D01*
X1836795Y2314517D01*
X1844521Y2306791D01*
X1853983Y2301328D01*
X1864537Y2298500D01*
X1875463D01*
X1886017Y2301328D01*
X1895479Y2306791D01*
X1903205Y2314517D01*
X1908668Y2323979D01*
X1911496Y2334533D01*
Y2345459D01*
X1908668Y2356013D01*
X1903205Y2365475D01*
X1895479Y2373201D01*
X1886017Y2378664D01*
X1875463Y2381492D01*
D02*
G37*
G36*
X1560463D02*
X1549537D01*
X1538983Y2378664D01*
X1529521Y2373201D01*
X1521795Y2365475D01*
X1516332Y2356013D01*
X1513504Y2345459D01*
Y2334533D01*
X1516332Y2323979D01*
X1521795Y2314517D01*
X1529521Y2306791D01*
X1538983Y2301328D01*
X1549537Y2298500D01*
X1560463D01*
X1571017Y2301328D01*
X1580479Y2306791D01*
X1588205Y2314517D01*
X1593668Y2323979D01*
X1596496Y2334533D01*
Y2345459D01*
X1593668Y2356013D01*
X1588205Y2365475D01*
X1580479Y2373201D01*
X1571017Y2378664D01*
X1560463Y2381492D01*
D02*
G37*
G36*
X1245463D02*
X1234537D01*
X1223983Y2378664D01*
X1214521Y2373201D01*
X1206795Y2365475D01*
X1201332Y2356013D01*
X1198504Y2345459D01*
Y2334533D01*
X1201332Y2323979D01*
X1206795Y2314517D01*
X1214521Y2306791D01*
X1223983Y2301328D01*
X1234537Y2298500D01*
X1245463D01*
X1256017Y2301328D01*
X1265479Y2306791D01*
X1273205Y2314517D01*
X1278668Y2323979D01*
X1281496Y2334533D01*
Y2345459D01*
X1278668Y2356013D01*
X1273205Y2365475D01*
X1265479Y2373201D01*
X1256017Y2378664D01*
X1245463Y2381492D01*
D02*
G37*
G36*
X13819370Y2325000D02*
X13775000D01*
Y2280630D01*
X13776500D01*
X13789056Y2283994D01*
X13800314Y2290494D01*
X13809506Y2299686D01*
X13816006Y2310944D01*
X13819370Y2323500D01*
Y2325000D01*
D02*
G37*
G36*
X13765000D02*
X13720630D01*
Y2323500D01*
X13723994Y2310944D01*
X13730494Y2299686D01*
X13739686Y2290494D01*
X13750944Y2283994D01*
X13763500Y2280630D01*
X13765000D01*
Y2325000D01*
D02*
G37*
G36*
X12016658Y2379370D02*
X12003658D01*
X11991102Y2376006D01*
X11979844Y2369506D01*
X11970652Y2360314D01*
X11964152Y2349056D01*
X11960788Y2336500D01*
Y2323500D01*
X11964152Y2310944D01*
X11970652Y2299686D01*
X11979844Y2290494D01*
X11991102Y2283994D01*
X12003658Y2280630D01*
X12016658D01*
X12029214Y2283994D01*
X12040472Y2290494D01*
X12049664Y2299686D01*
X12056164Y2310944D01*
X12059528Y2323500D01*
Y2336500D01*
X12056164Y2349056D01*
X12049664Y2360314D01*
X12040472Y2369506D01*
X12029214Y2376006D01*
X12016658Y2379370D01*
D02*
G37*
G36*
X11646500D02*
X11633500D01*
X11620944Y2376006D01*
X11609686Y2369506D01*
X11600494Y2360314D01*
X11593994Y2349056D01*
X11590630Y2336500D01*
Y2323500D01*
X11593994Y2310944D01*
X11600494Y2299686D01*
X11609686Y2290494D01*
X11620944Y2283994D01*
X11633500Y2280630D01*
X11646500D01*
X11659056Y2283994D01*
X11670314Y2290494D01*
X11679506Y2299686D01*
X11686006Y2310944D01*
X11689370Y2323500D01*
Y2336500D01*
X11686006Y2349056D01*
X11679506Y2360314D01*
X11670314Y2369506D01*
X11659056Y2376006D01*
X11646500Y2379370D01*
D02*
G37*
G36*
X9886658D02*
X9873658D01*
X9861102Y2376006D01*
X9849844Y2369506D01*
X9840652Y2360314D01*
X9834152Y2349056D01*
X9830788Y2336500D01*
Y2323500D01*
X9834152Y2310944D01*
X9840652Y2299686D01*
X9849844Y2290494D01*
X9861102Y2283994D01*
X9873658Y2280630D01*
X9886658D01*
X9899214Y2283994D01*
X9910472Y2290494D01*
X9919664Y2299686D01*
X9926164Y2310944D01*
X9929528Y2323500D01*
Y2336500D01*
X9926164Y2349056D01*
X9919664Y2360314D01*
X9910472Y2369506D01*
X9899214Y2376006D01*
X9886658Y2379370D01*
D02*
G37*
G36*
X9506500D02*
X9493500D01*
X9480944Y2376006D01*
X9469686Y2369506D01*
X9460494Y2360314D01*
X9453994Y2349056D01*
X9450630Y2336500D01*
Y2323500D01*
X9453994Y2310944D01*
X9460494Y2299686D01*
X9469686Y2290494D01*
X9480944Y2283994D01*
X9493500Y2280630D01*
X9506500D01*
X9519056Y2283994D01*
X9530314Y2290494D01*
X9539506Y2299686D01*
X9546006Y2310944D01*
X9549370Y2323500D01*
Y2336500D01*
X9546006Y2349056D01*
X9539506Y2360314D01*
X9530314Y2369506D01*
X9519056Y2376006D01*
X9506500Y2379370D01*
D02*
G37*
G36*
X7202677Y2469528D02*
X7123623D01*
Y2390472D01*
X7142758D01*
Y2330000D01*
X7144310Y2322196D01*
X7148731Y2315581D01*
X7155346Y2311160D01*
X7163150Y2309608D01*
X7694924D01*
X7700652Y2299686D01*
X7709844Y2290494D01*
X7721102Y2283994D01*
X7733658Y2280630D01*
X7746658D01*
X7759214Y2283994D01*
X7770472Y2290494D01*
X7779664Y2299686D01*
X7786164Y2310944D01*
X7789528Y2323500D01*
Y2336500D01*
X7786164Y2349056D01*
X7779664Y2360314D01*
X7770472Y2369506D01*
X7759214Y2376006D01*
X7746658Y2379370D01*
X7733658D01*
X7721102Y2376006D01*
X7709844Y2369506D01*
X7700652Y2360314D01*
X7694924Y2350392D01*
X7183542D01*
Y2390472D01*
X7202677D01*
Y2469528D01*
D02*
G37*
G36*
X1645722Y2683465D02*
X1634278D01*
X1623223Y2680503D01*
X1613312Y2674780D01*
X1605220Y2666688D01*
X1599497Y2656777D01*
X1596535Y2645722D01*
Y2634278D01*
X1599497Y2623223D01*
X1605220Y2613312D01*
X1613312Y2605220D01*
X1623223Y2599497D01*
X1634278Y2596535D01*
X1645722D01*
X1656777Y2599497D01*
X1657192Y2599737D01*
X1848465Y2408465D01*
X1853757Y2404928D01*
X1860000Y2403686D01*
X3325739D01*
X3343310Y2386115D01*
X3341396Y2381496D01*
X3339537D01*
X3328983Y2378668D01*
X3319521Y2373205D01*
X3311795Y2365479D01*
X3306332Y2356017D01*
X3303504Y2345463D01*
Y2334537D01*
X3305024Y2328863D01*
X3256553Y2280392D01*
X3118443D01*
X3069976Y2328859D01*
X3071496Y2334533D01*
Y2345459D01*
X3068668Y2356013D01*
X3063205Y2365475D01*
X3055479Y2373201D01*
X3046017Y2378664D01*
X3035463Y2381492D01*
X3024537D01*
X3013983Y2378664D01*
X3004521Y2373201D01*
X2996795Y2365475D01*
X2991332Y2356013D01*
X2988504Y2345459D01*
Y2334533D01*
X2990024Y2328859D01*
X2941557Y2280392D01*
X2803443D01*
X2754976Y2328859D01*
X2756496Y2334533D01*
Y2345459D01*
X2753668Y2356013D01*
X2748205Y2365475D01*
X2740479Y2373201D01*
X2731017Y2378664D01*
X2720463Y2381492D01*
X2709537D01*
X2698983Y2378664D01*
X2689521Y2373201D01*
X2681795Y2365475D01*
X2676332Y2356013D01*
X2673504Y2345459D01*
Y2334533D01*
X2675024Y2328859D01*
X2621557Y2275392D01*
X2493443D01*
X2439976Y2328859D01*
X2441496Y2334533D01*
Y2345459D01*
X2438668Y2356013D01*
X2433205Y2365475D01*
X2425479Y2373201D01*
X2416017Y2378664D01*
X2405463Y2381492D01*
X2394537D01*
X2383983Y2378664D01*
X2374521Y2373201D01*
X2366795Y2365475D01*
X2361332Y2356013D01*
X2358504Y2345459D01*
Y2334533D01*
X2360024Y2328859D01*
X2301557Y2270392D01*
X2158447D01*
X2116263Y2312575D01*
X2118205Y2314517D01*
X2123668Y2323979D01*
X2126496Y2334533D01*
Y2345459D01*
X2123668Y2356013D01*
X2118205Y2365475D01*
X2110479Y2373201D01*
X2101017Y2378664D01*
X2090463Y2381492D01*
X2079537D01*
X2068983Y2378664D01*
X2059521Y2373201D01*
X2051795Y2365475D01*
X2046332Y2356013D01*
X2043504Y2345459D01*
Y2334533D01*
X2045024Y2328859D01*
X1986557Y2270392D01*
X1843447D01*
X1801263Y2312575D01*
X1803205Y2314517D01*
X1808668Y2323979D01*
X1811496Y2334533D01*
Y2345459D01*
X1808668Y2356013D01*
X1803205Y2365475D01*
X1795479Y2373201D01*
X1786017Y2378664D01*
X1775463Y2381492D01*
X1764537D01*
X1753983Y2378664D01*
X1744521Y2373201D01*
X1736795Y2365475D01*
X1731332Y2356013D01*
X1728504Y2345459D01*
Y2334533D01*
X1730024Y2328859D01*
X1666557Y2265392D01*
X1538447D01*
X1488614Y2315225D01*
X1493668Y2323979D01*
X1496496Y2334533D01*
Y2345459D01*
X1493668Y2356013D01*
X1488205Y2365475D01*
X1480479Y2373201D01*
X1471017Y2378664D01*
X1460463Y2381492D01*
X1449537D01*
X1438983Y2378664D01*
X1429521Y2373201D01*
X1421795Y2365475D01*
X1416332Y2356013D01*
X1413504Y2345459D01*
Y2334533D01*
X1415024Y2328859D01*
X1351557Y2265392D01*
X1193447D01*
X1160392Y2298447D01*
Y2303854D01*
X1165479Y2306791D01*
X1173205Y2314517D01*
X1178668Y2323979D01*
X1181496Y2334533D01*
Y2345459D01*
X1178668Y2356013D01*
X1173205Y2365475D01*
X1165479Y2373201D01*
X1156017Y2378664D01*
X1145463Y2381492D01*
X1134537D01*
X1123983Y2378664D01*
X1114521Y2373201D01*
X1106795Y2365475D01*
X1101332Y2356013D01*
X1098504Y2345459D01*
Y2334533D01*
X1101332Y2323979D01*
X1106795Y2314517D01*
X1114521Y2306791D01*
X1119608Y2303854D01*
Y2290000D01*
X1121160Y2282196D01*
X1125581Y2275581D01*
X1170581Y2230581D01*
X1177196Y2226160D01*
X1185000Y2224608D01*
X1360004D01*
X1367808Y2226160D01*
X1374423Y2230581D01*
X1443863Y2300020D01*
X1446975Y2299186D01*
X1515581Y2230581D01*
X1522196Y2226160D01*
X1530000Y2224608D01*
X1675004D01*
X1682808Y2226160D01*
X1689423Y2230581D01*
X1757502Y2298660D01*
X1820581Y2235581D01*
X1827196Y2231160D01*
X1835000Y2229608D01*
X1995004D01*
X2002808Y2231160D01*
X2009423Y2235581D01*
X2072502Y2298660D01*
X2135581Y2235581D01*
X2142196Y2231160D01*
X2150000Y2229608D01*
X2310004D01*
X2317808Y2231160D01*
X2324423Y2235581D01*
X2388863Y2300020D01*
X2394537Y2298500D01*
X2405463D01*
X2411137Y2300020D01*
X2470577Y2240581D01*
X2477192Y2236160D01*
X2484996Y2234608D01*
X2630004D01*
X2637808Y2236160D01*
X2644423Y2240581D01*
X2703863Y2300020D01*
X2709537Y2298500D01*
X2720463D01*
X2726137Y2300020D01*
X2780577Y2245581D01*
X2787192Y2241160D01*
X2794996Y2239608D01*
X2950004D01*
X2957808Y2241160D01*
X2964423Y2245581D01*
X3018863Y2300020D01*
X3024537Y2298500D01*
X3035463D01*
X3041137Y2300020D01*
X3095577Y2245581D01*
X3102192Y2241160D01*
X3109996Y2239608D01*
X3265000D01*
X3272804Y2241160D01*
X3279419Y2245581D01*
X3319989Y2286150D01*
X3324608Y2284237D01*
Y2230000D01*
X3326160Y2222196D01*
X3330581Y2215581D01*
X3385581Y2160581D01*
X3385581Y2160581D01*
X3392196Y2156160D01*
X3400000Y2154608D01*
X3986131D01*
X3988370Y2150729D01*
X3995729Y2143370D01*
X4004743Y2138166D01*
X4014796Y2135472D01*
X4025204D01*
X4035257Y2138166D01*
X4044271Y2143370D01*
X4045067Y2144167D01*
X4049686Y2142253D01*
Y2127757D01*
X4034079Y2112149D01*
X4025204Y2114528D01*
X4014796D01*
X4004743Y2111834D01*
X3995729Y2106630D01*
X3988370Y2099271D01*
X3983166Y2090257D01*
X3980472Y2080204D01*
Y2069796D01*
X3983166Y2059743D01*
X3988370Y2050729D01*
X3995729Y2043370D01*
X4004743Y2038166D01*
X4014796Y2035473D01*
X4025204D01*
X4035257Y2038166D01*
X4044271Y2043370D01*
X4051630Y2050729D01*
X4056834Y2059743D01*
X4059528Y2069796D01*
Y2080204D01*
X4057149Y2089079D01*
X4077535Y2109465D01*
X4081072Y2114757D01*
X4082314Y2121000D01*
Y2200000D01*
X4081072Y2206243D01*
X4077535Y2211535D01*
X4052535Y2236535D01*
X4047677Y2239781D01*
X4047122Y2240727D01*
X4046265Y2245364D01*
X4051630Y2250729D01*
X4056834Y2259743D01*
X4059528Y2269796D01*
Y2270000D01*
X3980472D01*
Y2269796D01*
X3983166Y2259743D01*
X3988370Y2250729D01*
X3992786Y2246314D01*
X3990715Y2241314D01*
X3494253D01*
X3442063Y2293504D01*
X3444134Y2298504D01*
X3450463D01*
X3461017Y2301332D01*
X3470479Y2306795D01*
X3478205Y2314521D01*
X3483668Y2323983D01*
X3486496Y2334537D01*
Y2345463D01*
X3483668Y2356017D01*
X3478205Y2365479D01*
X3470479Y2373205D01*
X3461017Y2378668D01*
X3450463Y2381496D01*
X3439537D01*
X3428983Y2378668D01*
X3419521Y2373205D01*
X3412648Y2366332D01*
X3410173Y2366289D01*
X3408977Y2366444D01*
X3406975Y2367130D01*
X3404031Y2371535D01*
X3344031Y2431535D01*
X3338739Y2435072D01*
X3332496Y2436314D01*
X1866757D01*
X1680263Y2622808D01*
X1680503Y2623223D01*
X1683465Y2634278D01*
Y2645722D01*
X1680503Y2656777D01*
X1674780Y2666688D01*
X1666688Y2674780D01*
X1656777Y2680503D01*
X1645722Y2683465D01*
D02*
G37*
G36*
X4980204Y2354528D02*
X4969796D01*
X4959743Y2351834D01*
X4950730Y2346630D01*
X4943370Y2339271D01*
X4938166Y2330257D01*
X4935472Y2320204D01*
Y2309796D01*
X4938166Y2299743D01*
X4943370Y2290729D01*
X4950730Y2283370D01*
X4959743Y2278166D01*
X4969796Y2275472D01*
X4980204D01*
X4990257Y2278166D01*
X4999270Y2283370D01*
X5006630Y2290729D01*
X5011834Y2299743D01*
X5014528Y2309796D01*
Y2320204D01*
X5011834Y2330257D01*
X5006630Y2339271D01*
X4999270Y2346630D01*
X4990257Y2351834D01*
X4980204Y2354528D01*
D02*
G37*
G36*
X5515204Y2339528D02*
X5504796D01*
X5494743Y2336834D01*
X5485730Y2331630D01*
X5478370Y2324271D01*
X5473166Y2315257D01*
X5470472Y2305204D01*
Y2294796D01*
X5473166Y2284743D01*
X5478370Y2275729D01*
X5485730Y2268370D01*
X5494743Y2263166D01*
X5504796Y2260472D01*
X5515204D01*
X5525257Y2263166D01*
X5534270Y2268370D01*
X5541630Y2275729D01*
X5546834Y2284743D01*
X5549528Y2294796D01*
Y2305204D01*
X5546834Y2315257D01*
X5541630Y2324271D01*
X5534270Y2331630D01*
X5525257Y2336834D01*
X5515204Y2339528D01*
D02*
G37*
G36*
X6203307Y2300000D02*
X6155000D01*
Y2251693D01*
X6157018D01*
X6170576Y2255326D01*
X6182731Y2262344D01*
X6192656Y2272269D01*
X6199674Y2284424D01*
X6203307Y2297982D01*
Y2300000D01*
D02*
G37*
G36*
X6145000D02*
X6096693D01*
Y2297982D01*
X6100326Y2284424D01*
X6107344Y2272269D01*
X6117269Y2262344D01*
X6129424Y2255326D01*
X6142982Y2251693D01*
X6145000D01*
Y2300000D01*
D02*
G37*
G36*
X2905722Y2683465D02*
X2894278D01*
X2883223Y2680503D01*
X2873312Y2674780D01*
X2865220Y2666688D01*
X2859497Y2656777D01*
X2856535Y2645722D01*
Y2634278D01*
X2859497Y2623223D01*
X2865220Y2613312D01*
X2873312Y2605220D01*
X2883223Y2599497D01*
X2894278Y2596535D01*
X2905722D01*
X2916777Y2599497D01*
X2926688Y2605220D01*
X2929199Y2607731D01*
X3068465Y2468465D01*
X3073757Y2464928D01*
X3080000Y2463686D01*
X3450243D01*
X3600465Y2313465D01*
X3605757Y2309928D01*
X3612000Y2308686D01*
X3990715D01*
X3992786Y2303686D01*
X3988370Y2299271D01*
X3983166Y2290257D01*
X3980472Y2280204D01*
Y2280000D01*
X4059528D01*
Y2280204D01*
X4056834Y2290257D01*
X4051630Y2299271D01*
X4047214Y2303686D01*
X4049285Y2308686D01*
X4263243D01*
X4282850Y2289079D01*
X4280472Y2280204D01*
Y2269796D01*
X4283166Y2259743D01*
X4288370Y2250729D01*
X4295730Y2243370D01*
X4304743Y2238166D01*
X4314796Y2235472D01*
X4325204D01*
X4335257Y2238166D01*
X4344270Y2243370D01*
X4351630Y2250729D01*
X4356834Y2259743D01*
X4359528Y2269796D01*
Y2280204D01*
X4356834Y2290257D01*
X4351630Y2299271D01*
X4344270Y2306630D01*
X4335257Y2311834D01*
X4325204Y2314528D01*
X4314796D01*
X4305921Y2312149D01*
X4281535Y2336535D01*
X4276243Y2340072D01*
X4270000Y2341314D01*
X4049285D01*
X4047214Y2346314D01*
X4051630Y2350729D01*
X4056834Y2359743D01*
X4059528Y2369796D01*
Y2370000D01*
X3980472D01*
Y2369796D01*
X3983166Y2359743D01*
X3988370Y2350729D01*
X3992786Y2346314D01*
X3990715Y2341314D01*
X3618757D01*
X3468535Y2491535D01*
X3463243Y2495072D01*
X3457000Y2496314D01*
X3086757D01*
X2943465Y2639606D01*
Y2645722D01*
X2940503Y2656777D01*
X2934780Y2666688D01*
X2926688Y2674780D01*
X2916777Y2680503D01*
X2905722Y2683465D01*
D02*
G37*
G36*
X6779556Y2248818D02*
X6770444D01*
X6761642Y2246460D01*
X6753751Y2241904D01*
X6747308Y2235461D01*
X6742752Y2227570D01*
X6740394Y2218768D01*
Y2209656D01*
X6742752Y2200854D01*
X6747308Y2192963D01*
X6753751Y2186520D01*
X6761642Y2181964D01*
X6770444Y2179606D01*
X6779556D01*
X6788358Y2181964D01*
X6796249Y2186520D01*
X6802692Y2192963D01*
X6807248Y2200854D01*
X6809606Y2209656D01*
Y2218768D01*
X6807248Y2227570D01*
X6802692Y2235461D01*
X6796249Y2241904D01*
X6788358Y2246460D01*
X6779556Y2248818D01*
D02*
G37*
G36*
X4980204Y2254528D02*
X4969796D01*
X4959743Y2251834D01*
X4950730Y2246630D01*
X4943370Y2239271D01*
X4938166Y2230257D01*
X4935472Y2220204D01*
Y2209796D01*
X4938166Y2199743D01*
X4943370Y2190729D01*
X4950730Y2183370D01*
X4959743Y2178166D01*
X4969796Y2175472D01*
X4980204D01*
X4990257Y2178166D01*
X4999270Y2183370D01*
X5006630Y2190729D01*
X5011834Y2199743D01*
X5014528Y2209796D01*
Y2220204D01*
X5011834Y2230257D01*
X5006630Y2239271D01*
X4999270Y2246630D01*
X4990257Y2251834D01*
X4980204Y2254528D01*
D02*
G37*
G36*
X6467018Y2183307D02*
X6465000D01*
Y2135000D01*
X6513307D01*
Y2137018D01*
X6509674Y2150576D01*
X6502656Y2162731D01*
X6492731Y2172656D01*
X6480576Y2179674D01*
X6467018Y2183307D01*
D02*
G37*
G36*
X6455000D02*
X6452982D01*
X6439424Y2179674D01*
X6427269Y2172656D01*
X6417344Y2162731D01*
X6410326Y2150576D01*
X6406693Y2137018D01*
Y2135000D01*
X6455000D01*
Y2183307D01*
D02*
G37*
G36*
X6877982Y2150394D02*
X6868870D01*
X6860069Y2148036D01*
X6852177Y2143480D01*
X6845734Y2137037D01*
X6841178Y2129146D01*
X6838820Y2120344D01*
Y2111232D01*
X6841178Y2102430D01*
X6845734Y2094539D01*
X6852177Y2088096D01*
X6860069Y2083540D01*
X6868870Y2081182D01*
X6877982D01*
X6886783Y2083540D01*
X6894675Y2088096D01*
X6901118Y2094539D01*
X6905674Y2102430D01*
X6908032Y2111232D01*
Y2120344D01*
X6905674Y2129146D01*
X6901118Y2137037D01*
X6894675Y2143480D01*
X6886783Y2148036D01*
X6877982Y2150394D01*
D02*
G37*
G36*
X6513307Y2125000D02*
X6465000D01*
Y2076693D01*
X6467018D01*
X6480576Y2080326D01*
X6492731Y2087344D01*
X6502656Y2097269D01*
X6509674Y2109424D01*
X6513307Y2122982D01*
Y2125000D01*
D02*
G37*
G36*
X6455000D02*
X6406693D01*
Y2122982D01*
X6410326Y2109424D01*
X6417344Y2097269D01*
X6427269Y2087344D01*
X6439424Y2080326D01*
X6452982Y2076693D01*
X6455000D01*
Y2125000D01*
D02*
G37*
G36*
X4980204Y2154528D02*
X4969796D01*
X4959743Y2151834D01*
X4950730Y2146630D01*
X4943370Y2139271D01*
X4938166Y2130257D01*
X4935472Y2120204D01*
Y2109796D01*
X4938166Y2099743D01*
X4943370Y2090729D01*
X4950730Y2083370D01*
X4959743Y2078166D01*
X4969796Y2075472D01*
X4980204D01*
X4990257Y2078166D01*
X4999270Y2083370D01*
X5006630Y2090729D01*
X5011834Y2099743D01*
X5014528Y2109796D01*
Y2120204D01*
X5011834Y2130257D01*
X5006630Y2139271D01*
X4999270Y2146630D01*
X4990257Y2151834D01*
X4980204Y2154528D01*
D02*
G37*
G36*
X7413898Y2099528D02*
X7379370D01*
Y2065000D01*
X7413898D01*
Y2099528D01*
D02*
G37*
G36*
X4325204Y2114528D02*
X4314796D01*
X4304743Y2111834D01*
X4295730Y2106630D01*
X4288370Y2099271D01*
X4283166Y2090257D01*
X4280472Y2080204D01*
Y2069796D01*
X4283166Y2059743D01*
X4288370Y2050729D01*
X4295730Y2043370D01*
X4304743Y2038166D01*
X4314796Y2035473D01*
X4325204D01*
X4335257Y2038166D01*
X4344270Y2043370D01*
X4351630Y2050729D01*
X4356834Y2059743D01*
X4359528Y2069796D01*
Y2080204D01*
X4356834Y2090257D01*
X4351630Y2099271D01*
X4344270Y2106630D01*
X4335257Y2111834D01*
X4325204Y2114528D01*
D02*
G37*
G36*
X7413898Y2055000D02*
X7379370D01*
Y2020473D01*
X7413898D01*
Y2055000D01*
D02*
G37*
G36*
X6267018Y2183307D02*
X6252982D01*
X6239424Y2179674D01*
X6227269Y2172656D01*
X6217344Y2162731D01*
X6210326Y2150576D01*
X6206693Y2137018D01*
Y2122982D01*
X6210326Y2109424D01*
X6217344Y2097269D01*
X6227269Y2087344D01*
X6239424Y2080326D01*
X6252982Y2076693D01*
X6267018D01*
X6280576Y2080326D01*
X6280741Y2080421D01*
X6350581Y2010581D01*
X6357196Y2006160D01*
X6365000Y2004608D01*
X6585786D01*
X6593590Y2006160D01*
X6600205Y2010581D01*
X6671062Y2081438D01*
X6672018Y2081182D01*
X6681130D01*
X6682086Y2081438D01*
X6762943Y2000581D01*
X6762943Y2000581D01*
X6769558Y1996160D01*
X6777362Y1994608D01*
X6777363Y1994608D01*
X7250630D01*
X7258434Y1996160D01*
X7265049Y2000581D01*
X7286100Y2021632D01*
X7290426Y2020473D01*
X7300834D01*
X7310887Y2023166D01*
X7319900Y2028370D01*
X7327260Y2035729D01*
X7329842Y2040203D01*
X7334842Y2038863D01*
Y2020473D01*
X7369370D01*
Y2060000D01*
Y2099528D01*
X7334842D01*
Y2081137D01*
X7329842Y2079797D01*
X7327260Y2084271D01*
X7319900Y2091630D01*
X7310887Y2096834D01*
X7300834Y2099528D01*
X7290426D01*
X7280373Y2096834D01*
X7271359Y2091630D01*
X7264000Y2084271D01*
X7258796Y2075257D01*
X7256102Y2065204D01*
Y2054796D01*
X7257262Y2050470D01*
X7242183Y2035392D01*
X6785809D01*
X6710924Y2110276D01*
X6711180Y2111232D01*
Y2120344D01*
X6708822Y2129146D01*
X6704266Y2137037D01*
X6697823Y2143480D01*
X6689931Y2148036D01*
X6681130Y2150394D01*
X6672018D01*
X6663217Y2148036D01*
X6655325Y2143480D01*
X6648882Y2137037D01*
X6644326Y2129146D01*
X6641968Y2120344D01*
Y2111232D01*
X6642224Y2110276D01*
X6577339Y2045392D01*
X6373447D01*
X6309579Y2109259D01*
X6309674Y2109424D01*
X6313307Y2122982D01*
Y2137018D01*
X6309674Y2150576D01*
X6302656Y2162731D01*
X6292731Y2172656D01*
X6280576Y2179674D01*
X6267018Y2183307D01*
D02*
G37*
G36*
X4680204Y2054528D02*
X4680000D01*
Y2020000D01*
X4714528D01*
Y2020204D01*
X4711834Y2030257D01*
X4706630Y2039271D01*
X4699270Y2046630D01*
X4690257Y2051834D01*
X4680204Y2054528D01*
D02*
G37*
G36*
X4670000D02*
X4669796D01*
X4659743Y2051834D01*
X4650730Y2046630D01*
X4643370Y2039271D01*
X4638166Y2030257D01*
X4635472Y2020204D01*
Y2020000D01*
X4670000D01*
Y2054528D01*
D02*
G37*
G36*
X3850722Y2073465D02*
X3839278D01*
X3828223Y2070503D01*
X3818312Y2064780D01*
X3810220Y2056688D01*
X3804497Y2046777D01*
X3801535Y2035722D01*
Y2024278D01*
X3804497Y2013223D01*
X3810220Y2003312D01*
X3818312Y1995220D01*
X3828223Y1989497D01*
X3839278Y1986535D01*
X3850722D01*
X3861777Y1989497D01*
X3871688Y1995220D01*
X3879780Y2003312D01*
X3885503Y2013223D01*
X3888465Y2024278D01*
Y2035722D01*
X3885503Y2046777D01*
X3879780Y2056688D01*
X3871688Y2064780D01*
X3861777Y2070503D01*
X3850722Y2073465D01*
D02*
G37*
G36*
X3450722D02*
X3439278D01*
X3428223Y2070503D01*
X3418312Y2064780D01*
X3410220Y2056688D01*
X3404497Y2046777D01*
X3401535Y2035722D01*
Y2024278D01*
X3404497Y2013223D01*
X3410220Y2003312D01*
X3418312Y1995220D01*
X3428223Y1989497D01*
X3439278Y1986535D01*
X3450722D01*
X3461777Y1989497D01*
X3471688Y1995220D01*
X3479780Y2003312D01*
X3485503Y2013223D01*
X3488465Y2024278D01*
Y2035722D01*
X3485503Y2046777D01*
X3479780Y2056688D01*
X3471688Y2064780D01*
X3461777Y2070503D01*
X3450722Y2073465D01*
D02*
G37*
G36*
X3220722D02*
X3209278D01*
X3198223Y2070503D01*
X3188312Y2064780D01*
X3180220Y2056688D01*
X3174497Y2046777D01*
X3171535Y2035722D01*
Y2024278D01*
X3174497Y2013223D01*
X3180220Y2003312D01*
X3188312Y1995220D01*
X3198223Y1989497D01*
X3209278Y1986535D01*
X3220722D01*
X3231777Y1989497D01*
X3241688Y1995220D01*
X3249780Y2003312D01*
X3255503Y2013223D01*
X3258465Y2024278D01*
Y2035722D01*
X3255503Y2046777D01*
X3249780Y2056688D01*
X3241688Y2064780D01*
X3231777Y2070503D01*
X3220722Y2073465D01*
D02*
G37*
G36*
X2820722D02*
X2809278D01*
X2798223Y2070503D01*
X2788312Y2064780D01*
X2780220Y2056688D01*
X2774497Y2046777D01*
X2771535Y2035722D01*
Y2024278D01*
X2774497Y2013223D01*
X2780220Y2003312D01*
X2788312Y1995220D01*
X2798223Y1989497D01*
X2809278Y1986535D01*
X2820722D01*
X2831777Y1989497D01*
X2841688Y1995220D01*
X2849780Y2003312D01*
X2855503Y2013223D01*
X2858465Y2024278D01*
Y2035722D01*
X2855503Y2046777D01*
X2849780Y2056688D01*
X2841688Y2064780D01*
X2831777Y2070503D01*
X2820722Y2073465D01*
D02*
G37*
G36*
X2190722D02*
X2179278D01*
X2168223Y2070503D01*
X2158312Y2064780D01*
X2150220Y2056688D01*
X2144497Y2046777D01*
X2141535Y2035722D01*
Y2024278D01*
X2144497Y2013223D01*
X2150220Y2003312D01*
X2158312Y1995220D01*
X2168223Y1989497D01*
X2179278Y1986535D01*
X2190722D01*
X2201777Y1989497D01*
X2211688Y1995220D01*
X2219780Y2003312D01*
X2225503Y2013223D01*
X2228465Y2024278D01*
Y2035722D01*
X2225503Y2046777D01*
X2219780Y2056688D01*
X2211688Y2064780D01*
X2201777Y2070503D01*
X2190722Y2073465D01*
D02*
G37*
G36*
X1560722D02*
X1549278D01*
X1538223Y2070503D01*
X1528312Y2064780D01*
X1520220Y2056688D01*
X1514497Y2046777D01*
X1511535Y2035722D01*
Y2024278D01*
X1514497Y2013223D01*
X1520220Y2003312D01*
X1528312Y1995220D01*
X1538223Y1989497D01*
X1549278Y1986535D01*
X1560722D01*
X1571777Y1989497D01*
X1581688Y1995220D01*
X1589780Y2003312D01*
X1595503Y2013223D01*
X1598465Y2024278D01*
Y2035722D01*
X1595503Y2046777D01*
X1589780Y2056688D01*
X1581688Y2064780D01*
X1571777Y2070503D01*
X1560722Y2073465D01*
D02*
G37*
G36*
X4025204Y2014527D02*
X4025000D01*
Y1980000D01*
X4059528D01*
Y1980204D01*
X4056834Y1990257D01*
X4051630Y1999271D01*
X4044271Y2006630D01*
X4035257Y2011834D01*
X4025204Y2014527D01*
D02*
G37*
G36*
X4015000D02*
X4014796D01*
X4004743Y2011834D01*
X3995729Y2006630D01*
X3988370Y1999271D01*
X3983166Y1990257D01*
X3980472Y1980204D01*
Y1980000D01*
X4015000D01*
Y2014527D01*
D02*
G37*
G36*
X4980204Y2054528D02*
X4969796D01*
X4959743Y2051834D01*
X4950730Y2046630D01*
X4943370Y2039271D01*
X4938166Y2030257D01*
X4935472Y2020204D01*
Y2009796D01*
X4938166Y1999743D01*
X4943370Y1990729D01*
X4950730Y1983370D01*
X4959743Y1978166D01*
X4969796Y1975473D01*
X4980204D01*
X4990257Y1978166D01*
X4999270Y1983370D01*
X5006630Y1990729D01*
X5011834Y1999743D01*
X5014528Y2009796D01*
Y2020204D01*
X5011834Y2030257D01*
X5006630Y2039271D01*
X4999270Y2046630D01*
X4990257Y2051834D01*
X4980204Y2054528D01*
D02*
G37*
G36*
X4714528Y2010000D02*
X4680000D01*
Y1975473D01*
X4680204D01*
X4690257Y1978166D01*
X4699270Y1983370D01*
X4706630Y1990729D01*
X4711834Y1999743D01*
X4714528Y2009796D01*
Y2010000D01*
D02*
G37*
G36*
X4670000D02*
X4635472D01*
Y2009796D01*
X4638166Y1999743D01*
X4643370Y1990729D01*
X4650730Y1983370D01*
X4659743Y1978166D01*
X4669796Y1975473D01*
X4670000D01*
Y2010000D01*
D02*
G37*
G36*
X3874000Y2141314D02*
X2050000D01*
X2043757Y2140072D01*
X2038465Y2136535D01*
X1972192Y2070263D01*
X1971777Y2070503D01*
X1960722Y2073465D01*
X1949278D01*
X1938223Y2070503D01*
X1928312Y2064780D01*
X1920220Y2056688D01*
X1914497Y2046777D01*
X1911535Y2035722D01*
Y2024278D01*
X1914497Y2013223D01*
X1920220Y2003312D01*
X1928312Y1995220D01*
X1938223Y1989497D01*
X1949278Y1986535D01*
X1960722D01*
X1971777Y1989497D01*
X1981688Y1995220D01*
X1989780Y2003312D01*
X1995503Y2013223D01*
X1998465Y2024278D01*
Y2035722D01*
X1995503Y2046777D01*
X1995263Y2047192D01*
X2056757Y2108686D01*
X3867243D01*
X3930615Y2045314D01*
Y1875000D01*
X3931857Y1868757D01*
X3935393Y1863465D01*
X3940685Y1859928D01*
X3946928Y1858687D01*
X4220000D01*
X4226243Y1859928D01*
X4231535Y1863465D01*
X4305921Y1937851D01*
X4314796Y1935473D01*
X4325204D01*
X4335257Y1938166D01*
X4344270Y1943370D01*
X4351630Y1950729D01*
X4356834Y1959743D01*
X4359528Y1969796D01*
Y1980204D01*
X4356834Y1990257D01*
X4351630Y1999271D01*
X4344270Y2006630D01*
X4335257Y2011834D01*
X4325204Y2014527D01*
X4314796D01*
X4304743Y2011834D01*
X4295730Y2006630D01*
X4288370Y1999271D01*
X4283166Y1990257D01*
X4280472Y1980204D01*
Y1969796D01*
X4282850Y1960921D01*
X4213243Y1891313D01*
X3963242D01*
Y2052072D01*
X3962000Y2058315D01*
X3958464Y2063607D01*
X3885535Y2136535D01*
X3880243Y2140072D01*
X3874000Y2141314D01*
D02*
G37*
G36*
X4059528Y1970000D02*
X4025000D01*
Y1935473D01*
X4025204D01*
X4035257Y1938166D01*
X4044271Y1943370D01*
X4051630Y1950729D01*
X4056834Y1959743D01*
X4059528Y1969796D01*
Y1970000D01*
D02*
G37*
G36*
X4015000D02*
X3980472D01*
Y1969796D01*
X3983166Y1959743D01*
X3988370Y1950729D01*
X3995729Y1943370D01*
X4004743Y1938166D01*
X4014796Y1935473D01*
X4015000D01*
Y1970000D01*
D02*
G37*
G36*
X4325204Y2214528D02*
X4314796D01*
X4304743Y2211834D01*
X4295730Y2206630D01*
X4288370Y2199271D01*
X4283166Y2190257D01*
X4280472Y2180204D01*
Y2169796D01*
X4283166Y2159743D01*
X4288370Y2150729D01*
X4295730Y2143370D01*
X4304743Y2138166D01*
X4314796Y2135472D01*
X4325204D01*
X4335257Y2138166D01*
X4344270Y2143370D01*
X4351630Y2150729D01*
X4355668Y2151261D01*
X4388686Y2118243D01*
Y1851313D01*
X2786757D01*
X2625263Y2012808D01*
X2625503Y2013223D01*
X2628465Y2024278D01*
Y2035722D01*
X2625503Y2046777D01*
X2619780Y2056688D01*
X2611688Y2064780D01*
X2601777Y2070503D01*
X2590722Y2073465D01*
X2579278D01*
X2568223Y2070503D01*
X2558312Y2064780D01*
X2550220Y2056688D01*
X2544497Y2046777D01*
X2541535Y2035722D01*
Y2024278D01*
X2544497Y2013223D01*
X2550220Y2003312D01*
X2558312Y1995220D01*
X2568223Y1989497D01*
X2579278Y1986535D01*
X2590722D01*
X2601777Y1989497D01*
X2602192Y1989737D01*
X2768465Y1823465D01*
X2773757Y1819928D01*
X2780000Y1818687D01*
X4405000D01*
X4411243Y1819928D01*
X4416535Y1823465D01*
X4420072Y1828757D01*
X4421314Y1835000D01*
Y2125000D01*
X4420072Y2131243D01*
X4416535Y2136535D01*
X4366535Y2186535D01*
X4361243Y2190072D01*
X4356383Y2191039D01*
X4351630Y2199271D01*
X4344270Y2206630D01*
X4335257Y2211834D01*
X4325204Y2214528D01*
D02*
G37*
%LPD*%
G36*
X4263524Y2528405D02*
X4261611Y2523785D01*
X4209285D01*
X4196535Y2536535D01*
X4191243Y2540072D01*
X4185000Y2541314D01*
X4049285D01*
X4047214Y2546314D01*
X4051630Y2550729D01*
X4056224Y2558686D01*
X4233243D01*
X4263524Y2528405D01*
D02*
G37*
G36*
X4190993Y2495937D02*
X4196285Y2492400D01*
X4202528Y2491159D01*
X4278624D01*
X4282230Y2486763D01*
X4280472Y2480204D01*
Y2469796D01*
X4283166Y2459743D01*
X4288370Y2450729D01*
X4292786Y2446314D01*
X4290715Y2441314D01*
X4076757D01*
X4057149Y2460921D01*
X4059528Y2469796D01*
Y2480204D01*
X4056834Y2490257D01*
X4051630Y2499271D01*
X4047214Y2503686D01*
X4049285Y2508686D01*
X4178243D01*
X4190993Y2495937D01*
D02*
G37*
G36*
X3379620Y2310470D02*
X3380961Y2308465D01*
X3475961Y2213465D01*
X3481253Y2209928D01*
X3487496Y2208686D01*
X3990715D01*
X3992786Y2203686D01*
X3988370Y2199271D01*
X3986131Y2195392D01*
X3408447D01*
X3365392Y2238447D01*
Y2303858D01*
X3370479Y2306795D01*
X3374645Y2310960D01*
X3379620Y2310470D01*
D02*
G37*
D10*
X4175000Y2625000D02*
X4365000D01*
X4125000Y2675000D02*
X4175000Y2625000D01*
X4020000Y2675000D02*
X4125000D01*
X6696000Y2385000D02*
X6773426Y2462426D01*
X5950000Y2385000D02*
X6696000D01*
X5935000Y2400000D02*
X5950000Y2385000D01*
X5810000Y2400000D02*
X5935000D01*
X6040000Y2585000D02*
X6600000D01*
X5955000Y2500000D02*
X6040000Y2585000D01*
X5810000Y2500000D02*
X5955000D01*
X6600000Y2585000D02*
X6675000Y2510000D01*
X5870000Y2305000D02*
X5950000D01*
X5865000Y2300000D02*
X5870000Y2305000D01*
X5810000Y2300000D02*
X5865000D01*
X4816000Y2569000D02*
X5065000D01*
Y2400000D02*
Y2569000D01*
Y2400000D02*
X5510000D01*
X4770000Y2615000D02*
X4816000Y2569000D01*
X4675000Y2615000D02*
X4770000D01*
X4202528Y2507472D02*
X4287528D01*
X4185000Y2525000D02*
X4202528Y2507472D01*
X3645000Y2525000D02*
X4185000D01*
X3530000Y2640000D02*
X3645000Y2525000D01*
X4220000Y1875000D02*
X4320000Y1975000D01*
X3946928Y1875000D02*
X4220000D01*
X3946928D02*
Y2052072D01*
X4405000Y1835000D02*
Y2125000D01*
X2780000Y1835000D02*
X4405000D01*
X2585000Y2030000D02*
X2780000Y1835000D01*
X3874000Y2125000D02*
X3946928Y2052072D01*
X2050000Y2125000D02*
X3874000D01*
X4355000Y2175000D02*
X4405000Y2125000D01*
X4320000Y2175000D02*
X4355000D01*
X3332496Y2420000D02*
X3392496Y2360000D01*
X1860000Y2420000D02*
X3332496D01*
X1640000Y2640000D02*
X1860000Y2420000D01*
X3457000Y2480000D02*
X3612000Y2325000D01*
X3080000Y2480000D02*
X3457000D01*
X2920000Y2640000D02*
X3080000Y2480000D01*
X2900000Y2640000D02*
X2920000D01*
X1955000Y2030000D02*
X2050000Y2125000D01*
X5610000Y2400000D02*
X5810000D01*
X5510000Y2500000D02*
X5610000Y2400000D01*
X4020000Y2075000D02*
X4066000Y2121000D01*
Y2200000D01*
X4041000Y2225000D02*
X4066000Y2200000D01*
X3487496Y2225000D02*
X4041000D01*
X3392496Y2320000D02*
X3487496Y2225000D01*
X3392496Y2320000D02*
Y2360000D01*
X3612000Y2325000D02*
X4270000D01*
X4320000Y2275000D01*
X4365000Y2625000D02*
X4675000Y2315000D01*
X4287528Y2507472D02*
X4320000Y2475000D01*
X4360528Y2529472D02*
X4675000Y2215000D01*
X4285528Y2529472D02*
X4360528D01*
X4240000Y2575000D02*
X4285528Y2529472D01*
X4020000Y2575000D02*
X4240000D01*
X4020000Y2475000D02*
X4070000Y2425000D01*
X4365000D01*
X4675000Y2115000D01*
X6773426Y2462426D02*
Y2608426D01*
X5365000Y2500000D02*
X5510000D01*
D11*
X7163150Y2330000D02*
X7740158D01*
X7163150D02*
Y2430000D01*
X3265000Y2260000D02*
X3345000Y2340000D01*
X3109996Y2260000D02*
X3265000D01*
X3030000Y2339996D02*
X3109996Y2260000D01*
X2950004D02*
X3030000Y2339996D01*
X2794996Y2260000D02*
X2950004D01*
X2715000Y2339996D02*
X2794996Y2260000D01*
X2630004Y2255000D02*
X2715000Y2339996D01*
X2484996Y2255000D02*
X2630004D01*
X2400000Y2339996D02*
X2484996Y2255000D01*
X2310004Y2250000D02*
X2400000Y2339996D01*
X2150000Y2250000D02*
X2310004D01*
X2085000Y2315000D02*
X2150000Y2250000D01*
X1995004D02*
X2085000Y2339996D01*
X1835000Y2250000D02*
X1995004D01*
X1770000Y2315000D02*
X1835000Y2250000D01*
X1675004Y2245000D02*
X1770000Y2339996D01*
X1530000Y2245000D02*
X1675004D01*
X1455000Y2320000D02*
X1530000Y2245000D01*
X1360004D02*
X1455000Y2339996D01*
X1185000Y2245000D02*
X1360004D01*
X1140000Y2290000D02*
X1185000Y2245000D01*
X1140000Y2290000D02*
Y2339996D01*
X2085000Y2315000D02*
Y2339996D01*
X1770000Y2315000D02*
Y2339996D01*
X1455000Y2320000D02*
Y2339996D01*
X6585786Y2025000D02*
X6676574Y2115788D01*
X6365000Y2025000D02*
X6585786D01*
X6260000Y2130000D02*
X6365000Y2025000D01*
X7250630Y2015000D02*
X7295630Y2060000D01*
X6777362Y2015000D02*
X7250630D01*
X6676574Y2115788D02*
X6777362Y2015000D01*
X4850000Y2740000D02*
X4975000Y2615000D01*
X4385000Y2740000D02*
X4850000D01*
X4320000Y2675000D02*
X4385000Y2740000D01*
X3400000Y2175000D02*
X4020000D01*
X3345000Y2230000D02*
X3400000Y2175000D01*
X3345000Y2230000D02*
Y2340000D01*
D12*
X5165000Y2500000D02*
D03*
X5365000D02*
D03*
X6260000Y2465000D02*
D03*
X6460000D02*
D03*
X6260000Y2130000D02*
D03*
X6460000D02*
D03*
X5950000Y2305000D02*
D03*
X6150000D02*
D03*
X7320000Y2680000D02*
D03*
X7520000D02*
D03*
D13*
X7740158Y2330000D02*
D03*
X9500000D02*
D03*
X11640000D02*
D03*
X9880158D02*
D03*
X13770000D02*
D03*
X12010158D02*
D03*
D14*
X7374370Y2060000D02*
D03*
X5510000Y2600000D02*
D03*
X4675000Y2615000D02*
D03*
X4020000Y2675000D02*
D03*
X7163150Y2430000D02*
D03*
D15*
X7295630Y2060000D02*
D03*
X5810000Y2300000D02*
D03*
Y2400000D02*
D03*
Y2500000D02*
D03*
Y2600000D02*
D03*
X5510000Y2300000D02*
D03*
Y2400000D02*
D03*
Y2500000D02*
D03*
X4975000Y2015000D02*
D03*
Y2115000D02*
D03*
Y2215000D02*
D03*
Y2315000D02*
D03*
Y2415000D02*
D03*
Y2515000D02*
D03*
Y2615000D02*
D03*
X4675000Y2015000D02*
D03*
Y2115000D02*
D03*
Y2215000D02*
D03*
Y2315000D02*
D03*
Y2415000D02*
D03*
Y2515000D02*
D03*
X4320000Y1975000D02*
D03*
Y2075000D02*
D03*
Y2175000D02*
D03*
Y2275000D02*
D03*
Y2375000D02*
D03*
Y2475000D02*
D03*
Y2575000D02*
D03*
Y2675000D02*
D03*
X4020000Y1975000D02*
D03*
Y2075000D02*
D03*
Y2175000D02*
D03*
Y2275000D02*
D03*
Y2375000D02*
D03*
Y2475000D02*
D03*
Y2575000D02*
D03*
X7360000Y2430000D02*
D03*
X7261574D02*
D03*
D16*
X3030000Y2339996D02*
D03*
X3130000D02*
D03*
X1140000D02*
D03*
X1240000D02*
D03*
X3345000Y2340000D02*
D03*
X3445000D02*
D03*
X1455000Y2339996D02*
D03*
X1555000D02*
D03*
X1770000D02*
D03*
X1870000D02*
D03*
X2085000D02*
D03*
X2185000D02*
D03*
X2400000D02*
D03*
X2500000D02*
D03*
X2715000D02*
D03*
X2815000D02*
D03*
D17*
X2900000Y2640000D02*
D03*
X2500000D02*
D03*
X1955000Y2030000D02*
D03*
X1555000D02*
D03*
X3845000D02*
D03*
X3445000D02*
D03*
X1640000Y2640000D02*
D03*
X1240000D02*
D03*
X2270000D02*
D03*
X1870000D02*
D03*
X2585000Y2030000D02*
D03*
X2185000D02*
D03*
X3215000D02*
D03*
X2815000D02*
D03*
X3530000Y2640000D02*
D03*
X3130000D02*
D03*
D18*
X6873426Y2115788D02*
D03*
X6775000Y2214212D02*
D03*
X6676574Y2115788D02*
D03*
X6871850Y2510000D02*
D03*
X6773426Y2608426D02*
D03*
X6675000Y2510000D02*
D03*
%TF.MD5,70e73332feb18c13e647c81a45ce7a46*%
M02*
